# Sources:
# -Misc-Fixed-Medium-O-Normal--13-120-75-75-C-70-ISO10646-1 $ucs-fonts: 7x13O.bdf,v 1.9 2002-11-08 20:42:37+00 mgk25 Rel $
# -windows-dina-medium-i-normal--13-80-96-96-c-70-microsoft-cp1252

name: terminal Medium Oblique 13
family: terminal
foundry: dylex
copyright: Public domain font.  Share and enjoy.
point-size: 13
weight: medium
slant: oblique
dpi: 78 78
spacing: character-cell
x-height: 6
cap-height: 9
offset: 0 -3
encoding: unicode
default-char: u+0000
converter: monobit v0.12
source-name: 7x13O.bdf
source-format: BDF v2.1
bdf.FONTNAME-REGISTRY: ""
bdf.DESTINATION: 1
bdf.-GBDFED-INFO: "Edited with gbdfed 1.6."

u+0000:
char0:
    .......
    ..@.@.@
    .......
    ..@...@
    .......
    .@...@.
    .......
    .@...@.
    .......
    @...@..
    .......
    @.@.@..
    .......

u+0001:
char1:
    .......
    .......
    .......
    .......
    ...@...
    ..@@@..
    .@@@@@.
    ..@@@..
    ...@...
    .......
    .......
    .......
    .......

u+0002:
ltshade:
    .......
    .@.@.@.
    .......
    @.@.@.@
    .......
    .@.@.@.
    .......
    @.@.@.@
    .......
    .@.@.@.
    .......
    @.@.@.@
    .......

u+0003:
char3:
    .......
    .@.@...
    .@.@...
    .@@@...
    .@.@...
    .@.@@@@
    .....@.
    .....@.
    .....@.
    .....@.
    .......
    .......
    .......

u+0004:
char4:
    .......
    .@@@...
    .@.....
    .@@....
    .@.....
    .@..@@@
    ....@..
    ....@@.
    ....@..
    ....@..
    .......
    .......
    .......

u+0005:
char5:
    .......
    ..@@...
    .@.....
    .@.....
    .@.....
    ..@@@@@
    ....@.@
    ....@@.
    ....@.@
    ....@.@
    .......
    .......
    .......

u+0006:
char6:
    .......
    .@.....
    .@.....
    .@.....
    .@.....
    .@@@@@@
    ....@..
    ....@@.
    ....@..
    ....@..
    .......
    .......
    .......

u+0007:
char7:
    .......
    .......
    ...@...
    ..@.@..
    ..@.@..
    ...@...
    .......
    .......
    .......
    .......
    .......
    .......
    .......

u+0008:
char177:
    .......
    .......
    .......
    ...@...
    ...@...
    @@@@@@.
    ..@....
    ..@....
    .......
    @@@@@..
    .......
    .......
    .......

u+0009:
char9:
    .......
    .@@....
    .@.@...
    .@.@...
    .@.@...
    .@.@@..
    ....@..
    ....@..
    ....@..
    ....@@@
    .......
    .......
    .......

u+000a:
char10:
    .......
    .@.@...
    .@.@...
    .@.@...
    ..@....
    ..@.@@@
    .....@.
    .....@.
    .....@.
    .....@.
    .......
    .......
    .......

u+000b:
char11:
    ...@...
    ...@...
    ...@...
    ...@...
    ...@...
    ...@...
    @@@@...
    .......
    .......
    .......
    .......
    .......
    .......

u+000c:
char12:
    .......
    .......
    .......
    .......
    .......
    .......
    @@@@...
    ...@...
    ...@...
    ...@...
    ...@...
    ...@...
    ...@...

u+000d:
char13:
    .......
    .......
    .......
    .......
    .......
    .......
    ...@@@@
    ...@...
    ...@...
    ...@...
    ...@...
    ...@...
    ...@...

u+000e:
char14:
    ...@...
    ...@...
    ...@...
    ...@...
    ...@...
    ...@...
    ...@@@@
    .......
    .......
    .......
    .......
    .......
    .......

u+000f:
char15:
    ...@...
    ...@...
    ...@...
    ...@...
    ...@...
    ...@...
    @@@@@@@
    ...@...
    ...@...
    ...@...
    ...@...
    ...@...
    ...@...

u+0010:
char16:
    @@@@@@@
    .......
    .......
    .......
    .......
    .......
    .......
    .......
    .......
    .......
    .......
    .......
    .......

u+0011:
char17:
    .......
    .......
    .......
    @@@@@@@
    .......
    .......
    .......
    .......
    .......
    .......
    .......
    .......
    .......

u+0012:
char18:
    .......
    .......
    .......
    .......
    .......
    .......
    @@@@@@@
    .......
    .......
    .......
    .......
    .......
    .......

u+0013:
char19:
    .......
    .......
    .......
    .......
    .......
    .......
    .......
    .......
    .......
    @@@@@@@
    .......
    .......
    .......

u+0014:
char20:
    .......
    .......
    .......
    .......
    .......
    .......
    .......
    .......
    .......
    .......
    .......
    .......
    @@@@@@@

u+0015:
char21:
    ...@...
    ...@...
    ...@...
    ...@...
    ...@...
    ...@...
    ...@@@@
    ...@...
    ...@...
    ...@...
    ...@...
    ...@...
    ...@...

u+0016:
char22:
    ...@...
    ...@...
    ...@...
    ...@...
    ...@...
    ...@...
    @@@@...
    ...@...
    ...@...
    ...@...
    ...@...
    ...@...
    ...@...

u+0017:
char23:
    ...@...
    ...@...
    ...@...
    ...@...
    ...@...
    ...@...
    @@@@@@@
    .......
    .......
    .......
    .......
    .......
    .......

u+0018:
char24:
    .......
    .......
    .......
    .......
    .......
    .......
    @@@@@@@
    ...@...
    ...@...
    ...@...
    ...@...
    ...@...
    ...@...

u+0019:
char25:
    ...@...
    ...@...
    ...@...
    ...@...
    ...@...
    ...@...
    ...@...
    ...@...
    ...@...
    ...@...
    ...@...
    ...@...
    ...@...

u+001a:
char27:
    .......
    .......
    .......
    ....@@.
    ..@@...
    .@.....
    ..@@...
    ....@..
    .......
    @@@@@..
    .......
    .......
    .......

u+001b:
char29:
    .......
    .......
    .......
    ..@....
    ...@@..
    .....@.
    ...@@..
    .@@....
    .......
    @@@@@..
    .......
    .......
    .......

u+001c:
char28:
    .......
    .......
    .......
    .......
    .@@@@@.
    ..@.@..
    ..@.@..
    .@.@...
    .@.@...
    .@.@...
    .......
    .......
    .......

u+001d:
char26:
    .......
    .......
    .......
    .......
    .....@.
    .@@@@@@
    ...@...
    @@@@@@.
    .@.....
    .......
    .......
    .......
    .......

u+001e:
char30:
    .......
    .......
    ....@@.
    ...@...
    ..@....
    @@@@...
    .@.....
    .@.....
    @......
    @@@@@..
    .......
    .......
    .......

u+001f:
char31:
    .......
    .......
    .......
    .......
    .......
    .......
    ..@@@..
    .......
    .......
    .......
    .......
    .......
    .......

u+0020:
char32:
    .......
    .......
    .......
    .......
    .......
    .......
    .......
    .......
    .......
    .......
    .......
    .......
    .......

u+0021:
char33:
    .......
    .......
    ....@..
    ....@..
    ....@..
    ...@...
    ...@...
    .......
    ..@....
    ..@....
    .......
    .......
    .......

u+0022:
char34:
    .......
    ..@.@..
    ..@.@..
    ..@.@..
    .......
    .......
    .......
    .......
    .......
    .......
    .......
    .......
    .......

u+0023:
char35:
    .......
    .......
    ..@.@..
    ..@.@..
    .@@@@@.
    ..@.@..
    .@.@...
    @@@@@..
    .@.@...
    .@.@...
    .......
    .......
    .......

u+0024:
char36:
    .......
    ....@..
    ..@@@@.
    .@..@.@
    .@.@...
    ..@@...
    ...@@..
    ...@.@.
    @.@..@.
    .@@@@..
    ..@....
    .......
    .......

u+0025:
char37:
    .......
    .......
    ..@....
    .@.@...
    ..@....
    ....@@.
    ..@@...
    @@.....
    ...@...
    ..@.@..
    ...@...
    .......
    .......

u+0026:
char38:
    .......
    .......
    ...@...
    ..@.@..
    ..@.@..
    ..@@...
    .@.@@..
    @..@...
    @..@...
    .@@.@..
    .......
    .......
    .......

u+0027:
char39:
    .......
    ...@...
    ...@...
    ...@...
    .......
    .......
    .......
    .......
    .......
    .......
    .......
    .......
    .......

u+0028:
char40:
    .......
    ....@..
    ...@...
    ..@....
    ..@....
    .@.....
    .@.....
    .@.....
    .@.....
    ..@....
    ..@....
    ...@...
    .......

u+0029:
char41:
    .......
    ..@....
    ...@...
    ...@...
    ....@..
    ....@..
    ....@..
    ....@..
    ...@...
    ...@...
    ..@....
    .@.....
    .......

u+002a:
char42:
    .......
    .......
    .......
    .......
    ..@.@..
    ...@...
    @@@@@@.
    ..@....
    .@.@...
    .......
    .......
    .......
    .......

u+002b:
char43:
    .......
    .......
    .......
    .......
    ...@...
    ...@...
    @@@@@@.
    ..@....
    ..@....
    .......
    .......
    .......
    .......

u+002c:
char44:
    .......
    .......
    .......
    .......
    .......
    .......
    .......
    .......
    ...@...
    ...@...
    ..@....
    .@.....
    .......

u+002d:
char45:
    .......
    .......
    .......
    .......
    .......
    .......
    .@@@@@.
    .......
    .......
    .......
    .......
    .......
    .......

u+002e:
char46:
    .......
    .......
    .......
    .......
    .......
    .......
    .......
    .......
    ..@....
    ..@....
    .......
    .......
    .......

u+002f:
char47:
    .......
    .....@.
    ....@..
    ....@..
    ...@...
    ...@...
    ..@....
    ..@....
    .@.....
    .@.....
    @......
    .......
    .......

u+0030:
char48:
    .......
    .......
    ..@@@..
    .@...@.
    .@...@.
    @..@.@.
    @.@..@.
    @...@..
    @...@..
    .@@@...
    .......
    .......
    .......

u+0031:
char49:
    .......
    .......
    ...@@..
    ..@.@..
    .@..@..
    ...@...
    ...@...
    ..@....
    ..@....
    @@@@@..
    .......
    .......
    .......

u+0032:
char50:
    .......
    .......
    ...@@@.
    ..@...@
    ......@
    ....@@.
    ..@@...
    .@.....
    @......
    @@@@@..
    .......
    .......
    .......

u+0033:
char51:
    .......
    .......
    ...@@@.
    ..@...@
    .....@.
    ...@@..
    .....@.
    .....@.
    @...@..
    .@@@...
    .......
    .......
    .......

u+0034:
char52:
    .......
    .......
    .....@.
    ....@@.
    ...@.@.
    ..@.@..
    .@..@..
    @@@@@@.
    ...@...
    ...@...
    .......
    .......
    .......

u+0035:
char53:
    .......
    .......
    ..@@@@@
    ..@....
    .@.....
    .@@@@..
    .....@.
    .....@.
    @...@..
    .@@@...
    .......
    .......
    .......

u+0036:
char54:
    .......
    .......
    ...@@@.
    ..@....
    .@.....
    .@@@@..
    @....@.
    @....@.
    @...@..
    .@@@...
    .......
    .......
    .......

u+0037:
char55:
    .......
    .......
    .@@@@@.
    .....@.
    ....@..
    ...@...
    ..@....
    ..@....
    .@.....
    .@.....
    .......
    .......
    .......

u+0038:
char56:
    .......
    .......
    ...@@@.
    ..@...@
    .@...@.
    ..@@@..
    .@...@.
    @....@.
    @...@..
    .@@@...
    .......
    .......
    .......

u+0039:
char57:
    .......
    .......
    ...@@@.
    ..@...@
    .@....@
    .@...@.
    ..@@@@.
    ....@..
    ...@...
    .@@....
    .......
    .......
    .......

u+003a:
char58:
    .......
    .......
    .......
    .......
    ...@...
    ...@...
    .......
    .......
    ..@....
    ..@....
    .......
    .......
    .......

u+003b:
char59:
    .......
    .......
    .......
    .......
    ...@...
    ...@...
    .......
    .......
    ..@....
    ..@....
    .@.....
    @......
    .......

u+003c:
char60:
    .......
    .......
    .......
    .....@.
    ....@..
    ...@...
    ..@....
    ..@....
    ...@...
    ...@...
    .......
    .......
    .......

u+003d:
char61:
    .......
    .......
    .......
    .......
    .......
    ..@@@@@
    .......
    .@@@@@.
    .......
    .......
    .......
    .......
    .......

u+003e:
char62:
    .......
    .......
    .......
    ...@...
    ...@...
    ....@..
    ....@..
    ...@...
    ..@....
    .@.....
    .......
    .......
    .......

u+003f:
char63:
    .......
    .......
    ..@@@..
    .@...@.
    .....@.
    ....@..
    ...@...
    .......
    ..@....
    ..@....
    .......
    .......
    .......

u+0040:
char64:
    .......
    .......
    ..@@@..
    .@...@.
    .@...@.
    .@.@@..
    @.@.@..
    @..@@..
    @......
    .@@@@..
    .......
    .......
    .......

u+0041:
char65:
    .......
    .......
    ....@@.
    ...@.@.
    ..@..@.
    ..@..@.
    .@@@@@.
    .@...@.
    @....@.
    @....@.
    .......
    .......
    .......

u+0042:
char66:
    .......
    .......
    ..@@@@.
    ..@...@
    .@...@.
    .@@@@..
    .@..@..
    @....@.
    @....@.
    @@@@@..
    .......
    .......
    .......

u+0043:
char67:
    .......
    .......
    ...@@@.
    ..@...@
    .@.....
    .@.....
    @......
    @......
    @...@..
    .@@@...
    .......
    .......
    .......

u+0044:
char68:
    .......
    .......
    ..@@@@.
    ..@...@
    ..@...@
    .@....@
    .@...@.
    @....@.
    @...@..
    @@@@...
    .......
    .......
    .......

u+0045:
char69:
    .......
    .......
    ..@@@@@
    ..@....
    .@.....
    .@@@@..
    .@.....
    @......
    @......
    @@@@@..
    .......
    .......
    .......

u+0046:
char70:
    .......
    .......
    ..@@@@@
    ..@....
    .@.....
    .@@@@..
    .@.....
    @......
    @......
    @......
    .......
    .......
    .......

u+0047:
char71:
    .......
    .......
    ...@@@.
    ..@...@
    .@.....
    .@.....
    @...@@.
    @....@.
    @...@..
    .@@@...
    .......
    .......
    .......

u+0048:
char72:
    .......
    .......
    ..@...@
    ..@...@
    .@...@.
    .@@@@@.
    .@...@.
    @...@..
    @...@..
    @...@..
    .......
    .......
    .......

u+0049:
char73:
    .......
    .......
    ...@@@.
    ....@..
    ...@...
    ...@...
    ...@...
    ..@....
    ..@....
    .@@@...
    .......
    .......
    .......

u+004a:
char74:
    .......
    .......
    ....@@@
    ......@
    ......@
    .....@.
    .....@.
    @....@.
    @...@..
    .@@@...
    .......
    .......
    .......

u+004b:
char75:
    .......
    .......
    ..@...@
    ..@..@.
    .@..@..
    .@@@...
    .@..@..
    @...@..
    @...@..
    @...@..
    .......
    .......
    .......

u+004c:
char76:
    .......
    .......
    ..@....
    ..@....
    .@.....
    .@.....
    .@.....
    @......
    @......
    @@@@@..
    .......
    .......
    .......

u+004d:
char77:
    .......
    .......
    ..@...@
    ..@@.@@
    .@.@@@.
    .@.@.@.
    .@...@.
    @...@..
    @...@..
    @...@..
    .......
    .......
    .......

u+004e:
char78:
    .......
    .......
    ..@...@
    ..@...@
    .@.@.@.
    .@.@.@.
    .@.@.@.
    @...@..
    @...@..
    @...@..
    .......
    .......
    .......

u+004f:
char79:
    .......
    .......
    ...@@@.
    ..@...@
    .@....@
    .@....@
    @....@.
    @....@.
    @...@..
    .@@@...
    .......
    .......
    .......

u+0050:
char80:
    .......
    .......
    ..@@@@.
    ..@...@
    ..@...@
    .@...@.
    .@@@@..
    .@.....
    @......
    @......
    .......
    .......
    .......

u+0051:
char81:
    .......
    .......
    ...@@@.
    ..@...@
    .@....@
    .@....@
    @....@.
    @..@.@.
    @...@..
    .@@@.@.
    .....@.
    .......
    .......

u+0052:
char82:
    .......
    .......
    ..@@@@.
    ..@...@
    .@....@
    .@@@@@.
    .@..@..
    @...@..
    @....@.
    @....@.
    .......
    .......
    .......

u+0053:
char83:
    .......
    .......
    ...@@@.
    ..@...@
    ..@....
    ...@...
    ....@..
    ....@..
    @...@..
    .@@@...
    .......
    .......
    .......

u+0054:
char84:
    .......
    .......
    .@@@@@.
    ...@...
    ...@...
    ..@....
    ..@....
    .@.....
    .@.....
    .@.....
    .......
    .......
    .......

u+0055:
char85:
    .......
    .......
    ..@...@
    ..@...@
    .@...@.
    .@...@.
    .@...@.
    @...@..
    @...@..
    .@@@...
    .......
    .......
    .......

u+0056:
char86:
    .......
    .......
    .@....@
    .@....@
    .@...@.
    .@...@.
    .@..@..
    .@.@...
    ..@....
    ..@....
    .......
    .......
    .......

u+0057:
char87:
    .......
    .......
    ..@...@
    ..@...@
    .@....@
    .@...@.
    .@.@.@.
    @.@@.@.
    @@.@@..
    @...@..
    .......
    .......
    .......

u+0058:
char88:
    .......
    .......
    ..@...@
    ..@...@
    ..@..@.
    ...@@..
    ..@@...
    .@..@..
    @...@..
    @...@..
    .......
    .......
    .......

u+0059:
char89:
    .......
    .......
    @....@.
    @....@.
    .@..@..
    .@.@...
    ..@....
    ..@....
    .@.....
    .@.....
    .......
    .......
    .......

u+005a:
char90:
    .......
    .......
    ..@@@@@
    .....@.
    ....@..
    ...@...
    ..@....
    .@.....
    @......
    @@@@@..
    .......
    .......
    .......

u+005b:
char91:
    .......
    ...@@@.
    ...@...
    ...@...
    ..@....
    ..@....
    ..@....
    ..@....
    .@.....
    .@.....
    .@.....
    .@@@...
    .......

u+005c:
char92:
    .......
    .@.....
    .@.....
    ..@....
    ..@....
    ...@...
    ...@...
    ....@..
    ....@..
    .....@.
    .....@.
    .......
    .......

u+005d:
char93:
    .......
    ...@@@.
    .....@.
    .....@.
    ....@..
    ....@..
    ....@..
    ....@..
    ...@...
    ...@...
    ...@...
    .@@@...
    .......

u+005e:
char94:
    .......
    ...@...
    ...@...
    ..@.@..
    ..@.@..
    .@..@..
    .@..@..
    .......
    .......
    .......
    .......
    .......
    .......

u+005f:
char95:
    .......
    .......
    .......
    .......
    .......
    .......
    .......
    .......
    .......
    .......
    @@@@@@@
    .......
    .......

u+0060:
char96:
    .......
    ..@....
    ...@...
    .......
    .......
    .......
    .......
    .......
    .......
    .......
    .......
    .......
    .......

u+0061:
char97:
    .......
    .......
    .......
    .......
    ..@@@..
    .....@.
    .@@@@@.
    @....@.
    @...@..
    .@@@@..
    .......
    .......
    .......

u+0062:
char98:
    .......
    ..@....
    ..@....
    ..@....
    .@@@@..
    .@...@.
    .@...@.
    @...@..
    @...@..
    @@@@...
    .......
    .......
    .......

u+0063:
char99:
    .......
    .......
    .......
    .......
    ..@@@..
    .@...@.
    .@.....
    @......
    @...@..
    .@@@...
    .......
    .......
    .......

u+0064:
char100:
    .......
    ......@
    ......@
    ......@
    ..@@@@.
    .@...@.
    .@...@.
    @...@..
    @...@..
    .@@@@..
    .......
    .......
    .......

u+0065:
char101:
    .......
    .......
    .......
    .......
    ..@@@..
    .@...@.
    .@@@@@.
    @......
    @...@..
    .@@@...
    .......
    .......
    .......

u+0066:
char102:
    .......
    ....@@@
    ...@...
    ...@...
    .@@@@..
    ..@....
    ..@....
    .@.....
    .@.....
    .@.....
    .......
    .......
    .......

u+0067:
char103:
    .......
    .......
    .......
    .......
    ..@@@@.
    .@...@.
    .@...@.
    @...@..
    @...@..
    .@@@@..
    ....@..
    ...@...
    @@@....

u+0068:
char104:
    .......
    ..@....
    ..@....
    ..@....
    .@@@@..
    .@...@.
    .@...@.
    @...@..
    @...@..
    @...@..
    .......
    .......
    .......

u+0069:
char105:
    .......
    ....@..
    ....@..
    .......
    ..@@...
    ...@...
    ...@...
    ..@....
    ..@....
    ..@....
    .......
    .......
    .......

u+006a:
char106:
    .......
    .....@.
    .....@.
    .......
    ...@@..
    ....@..
    ....@..
    ....@..
    ...@...
    ...@...
    ...@...
    @@@....
    .......

u+006b:
char107:
    .......
    ..@....
    ..@....
    ..@....
    .@...@.
    .@..@..
    .@.@...
    @.@....
    @..@...
    @...@..
    .......
    .......
    .......

u+006c:
char108:
    .......
    ...@@..
    ....@..
    ....@..
    ...@...
    ...@...
    ...@...
    ..@....
    ..@....
    ..@....
    .......
    .......
    .......

u+006d:
char109:
    .......
    .......
    .......
    .......
    .@@.@..
    .@.@.@.
    .@.@.@.
    @.@.@..
    @.@.@..
    @.@.@..
    .......
    .......
    .......

u+006e:
char110:
    .......
    .......
    .......
    .......
    .@@@@..
    .@...@.
    .@...@.
    @...@..
    @...@..
    @...@..
    .......
    .......
    .......

u+006f:
char111:
    .......
    .......
    .......
    .......
    ..@@@..
    .@...@.
    .@...@.
    @...@..
    @...@..
    .@@@...
    .......
    .......
    .......

u+0070:
char112:
    .......
    .......
    .......
    .......
    ..@@@@.
    ..@...@
    ..@...@
    .@...@.
    .@...@.
    .@@@@..
    @......
    @......
    @......

u+0071:
char113:
    .......
    .......
    .......
    .......
    ..@@@@.
    .@...@.
    .@...@.
    @...@..
    @...@..
    .@@@@..
    ...@...
    ...@...
    ...@...

u+0072:
char114:
    .......
    .......
    .......
    .......
    .@.@@..
    .@@..@.
    .@.....
    @......
    @......
    @......
    .......
    .......
    .......

u+0073:
char115:
    .......
    .......
    .......
    .......
    ..@@@..
    .@...@.
    ..@@...
    ....@..
    @...@..
    .@@@...
    .......
    .......
    .......

u+0074:
char116:
    .......
    .......
    ...@...
    ...@...
    .@@@@..
    ..@....
    ..@....
    .@.....
    .@.....
    ..@@@..
    .......
    .......
    .......

u+0075:
char117:
    .......
    .......
    .......
    .......
    .@...@.
    .@...@.
    .@...@.
    @...@..
    @...@..
    .@@@@..
    .......
    .......
    .......

u+0076:
char118:
    .......
    .......
    .......
    .......
    .@...@.
    .@...@.
    ..@.@..
    ..@.@..
    ..@@...
    ..@....
    .......
    .......
    .......

u+0077:
char119:
    .......
    .......
    .......
    .......
    .@...@.
    .@...@.
    @.@..@.
    @.@.@..
    @@.@...
    @..@...
    .......
    .......
    .......

u+0078:
char120:
    .......
    .......
    .......
    .......
    .@...@.
    ..@.@..
    ...@...
    ..@....
    .@.@...
    @...@..
    .......
    .......
    .......

u+0079:
char121:
    .......
    .......
    .......
    .......
    .@...@.
    .@...@.
    .@...@.
    @...@..
    @...@..
    .@@@@..
    ...@...
    ...@...
    @@@....

u+007a:
char122:
    .......
    .......
    .......
    .......
    .@@@@@.
    ....@..
    ..@@...
    .@.....
    @......
    @@@@@..
    .......
    .......
    .......

u+007b:
char123:
    .......
    .....@@
    ....@..
    ....@..
    ...@...
    ...@...
    .@@....
    ...@...
    ..@....
    ..@....
    ..@....
    ...@@..
    .......

u+007c:
char124:
    .......
    ....@..
    ....@..
    ....@..
    ...@...
    ...@...
    ...@...
    ...@...
    ...@...
    ..@....
    ..@....
    ..@....
    .......

u+007d:
char125:
    .......
    ..@@...
    ....@..
    ....@..
    ...@...
    ...@...
    ....@@.
    ...@...
    ...@...
    ..@....
    ..@....
    @@.....
    .......

u+007e:
char126:
    .......
    .......
    .......
    .......
    .......
    ..@..@.
    .@.@.@.
    .@..@..
    .......
    .......
    .......
    .......
    .......

u+007f:
char127:
    .......
    .......
    .......
    .......
    .......
    .......
    .......
    .......
    .......
    .......
    .......
    .......
    .......

u+0080:
char128:
    .......
    .......
    .......
    ...@@..
    ..@..@.
    @@@@...
    .@.....
    @@@....
    .@..@..
    ..@@...
    .......
    .......
    .......

u+0081:
char129:
    .......
    .......
    .......
    .......
    .......
    .......
    .......
    .......
    .......
    .......
    .......
    .......
    .......

u+0082:
char130:
    .......
    .......
    .......
    .......
    .......
    .......
    .......
    .......
    ...@...
    ...@...
    ..@....
    .@.....
    .......

u+0083:
char131:
    .......
    .....@@
    ....@..
    ....@..
    ..@@@@.
    ...@...
    ...@...
    ...@...
    ..@....
    ..@....
    ..@....
    @@.....
    .......

u+0084:
char132:
    .......
    .......
    .......
    .......
    .......
    .......
    .......
    .......
    ..@.@..
    ..@.@..
    ..@.@..
    .......
    .......

u+0085:
char133:
    .......
    .......
    .......
    .......
    .......
    .......
    .......
    .......
    .......
    .@.@.@.
    .......
    .......
    .......

u+0086:
char134:
    .......
    ....@..
    ....@..
    .@@@@@@
    ...@...
    ...@...
    ...@...
    ...@...
    ..@....
    ..@....
    .......
    .......
    .......

u+0087:
char135:
    .......
    ....@..
    ....@..
    .@@@@@@
    ...@...
    .@@@@@.
    ...@...
    ...@...
    ..@....
    ..@....
    .......
    .......
    .......

u+0088:
char136:
    .......
    ...@...
    ..@.@..
    .@..@..
    .......
    .......
    .......
    .......
    .......
    .......
    .......
    .......
    .......

u+0089:
char137:
    .......
    .......
    ..@...@
    ..@..@.
    ....@..
    ...@...
    ..@....
    .@.....
    @..@.@.
    ...@.@.
    .......
    .......
    .......

u+008a:
char138:
    ...@.@.
    ....@..
    ...@@@.
    ..@...@
    ..@....
    ...@...
    ....@..
    ....@..
    @...@..
    .@@@...
    .......
    .......
    .......

u+008b:
char139:
    .......
    .......
    .......
    .......
    ...@...
    ..@....
    .@.....
    .@.....
    ..@....
    .......
    .......
    .......
    .......

u+008c:
char140:
    .......
    .......
    ...@.@@
    ..@.@..
    ..@.@..
    .@.@@@.
    .@.@...
    @.@....
    @.@....
    .@.@@..
    .......
    .......
    .......

u+008d:
char141:
    .......
    .......
    .......
    .......
    .......
    .......
    .......
    .......
    .......
    .......
    .......
    .......
    .......

u+008e:
char142:
    ..@.@..
    ...@...
    .@@@@@.
    ....@..
    ...@...
    ...@...
    ..@....
    ..@....
    .@.....
    .@@@@@.
    .......
    .......
    .......

u+008f:
char143:
    .......
    .......
    .......
    .......
    .......
    .......
    .......
    .......
    .......
    .......
    .......
    .......
    .......

u+0090:
char144:
    .......
    .......
    .......
    .......
    .......
    .......
    .......
    .......
    .......
    .......
    .......
    .......
    .......

u+0091:
char145:
    .......
    ...@...
    ...@...
    ....@..
    .......
    .......
    .......
    .......
    .......
    .......
    .......
    .......
    .......

u+0092:
char146:
    .......
    ...@...
    ...@...
    ..@....
    .......
    .......
    .......
    .......
    .......
    .......
    .......
    .......
    .......

u+0093:
char147:
    .......
    .@..@..
    .@..@..
    ..@..@.
    .......
    .......
    .......
    .......
    .......
    .......
    .......
    .......
    .......

u+0094:
char148:
    .......
    ..@..@.
    ..@..@.
    .@..@..
    .......
    .......
    .......
    .......
    .......
    .......
    .......
    .......
    .......

u+0095:
char149:
    .......
    .......
    .......
    .......
    ...@...
    ..@@@..
    .@@@@@.
    ..@@@..
    ...@...
    .......
    .......
    .......
    .......

u+0096:
char150:
    .......
    .......
    .......
    .......
    .......
    .......
    .@@@@@.
    .......
    .......
    .......
    .......
    .......
    .......

u+0097:
char151:
    .......
    .......
    .......
    .......
    .......
    .......
    @@@@@@@
    .......
    .......
    .......
    .......
    .......
    .......

u+0098:
char152:
    .......
    .......
    ...@.@.
    ..@.@..
    .......
    .......
    .......
    .......
    .......
    .......
    .......
    .......
    .......

u+0099:
char153:
    .......
    .......
    .@@@@@.
    ..@.@@.
    ..@.@@.
    ..@.@@.
    .......
    .......
    .......
    .......
    .......
    .......
    .......

u+009a:
char154:
    .......
    ...@.@.
    ....@..
    .......
    ..@@@..
    .@...@.
    ..@@...
    ....@..
    @...@..
    .@@@...
    .......
    .......
    .......

u+009b:
char155:
    .......
    .......
    .......
    .......
    ..@....
    ...@...
    ...@...
    ..@....
    .@.....
    .......
    .......
    .......
    .......

u+009c:
char156:
    .......
    .......
    .......
    .......
    ..@.@..
    .@.@.@.
    .@.@@@.
    @.@....
    @.@.@..
    .@.@...
    .......
    .......
    .......

u+009d:
char157:
    .......
    .......
    .......
    .......
    .......
    .......
    .......
    .......
    .......
    .......
    .......
    .......
    .......

u+009e:
char158:
    .......
    ..@.@..
    ...@...
    .......
    .@@@@@.
    ....@..
    ..@@...
    .@.....
    @......
    @@@@@..
    .......
    .......
    .......

u+009f:
char159:
    .......
    ...@.@.
    .......
    .@....@
    .@....@
    ..@..@.
    ..@.@..
    ...@...
    ..@....
    ..@....
    .......
    .......
    .......

u+00a0:
char160:
    .......
    .......
    .......
    .......
    .......
    .......
    .......
    .......
    .......
    .......
    .......
    .......
    .......

u+00a1:
char161:
    .......
    .......
    ....@..
    ....@..
    .......
    ...@...
    ...@...
    ...@...
    ..@....
    ..@....
    .......
    .......
    .......

u+00a2:
char162:
    .......
    .......
    .......
    ...@...
    ..@@@..
    .@.@.@.
    .@.@...
    @.@....
    @.@.@..
    .@@@...
    ..@....
    .......
    .......

u+00a3:
char163:
    .......
    .......
    ....@@.
    ...@...
    ..@....
    @@@@@..
    .@.....
    .@.....
    @......
    @@@@@..
    .......
    .......
    .......

u+00a4:
char164:
    .......
    .......
    .......
    .......
    .@...@.
    ..@@@..
    ..@.@..
    .@.@...
    .@@@...
    @...@..
    .......
    .......
    .......

u+00a5:
char165:
    .......
    .......
    .@....@
    .@....@
    .@...@.
    ..@.@..
    ...@...
    .@@@@@.
    ..@....
    ..@....
    .......
    .......
    .......

u+00a6:
char166:
    .......
    ....@..
    ....@..
    ....@..
    ...@...
    ...@...
    .......
    ..@....
    ..@....
    .@.....
    .@.....
    .@.....
    .......

u+00a7:
char167:
    .......
    ...@@@.
    ..@...@
    ..@....
    ..@@...
    ..@.@..
    ...@@..
    ....@..
    @...@..
    .@@@...
    .......
    .......
    .......

u+00a8:
char168:
    .......
    ..@.@..
    .......
    .......
    .......
    .......
    .......
    .......
    .......
    .......
    .......
    .......
    .......

u+00a9:
char169:
    .......
    .......
    ..@@@@.
    .@....@
    .@.@@.@
    .@@...@
    @@...@.
    @.@@.@.
    @....@.
    .@@@@..
    .......
    .......
    .......

u+00aa:
char170:
    .......
    .......
    ..@@...
    ....@..
    ..@@@..
    .@..@..
    ..@@@..
    .......
    .......
    .......
    .......
    .......
    .......

u+00ab:
char171:
    .......
    .......
    .......
    .......
    ...@.@.
    ..@.@..
    .@.@...
    .@.@...
    ..@.@..
    .......
    .......
    .......
    .......

u+00ac:
char172:
    .......
    .......
    .......
    .......
    .......
    .......
    .@@@@..
    ....@..
    ...@...
    ...@...
    .......
    .......
    .......

u+00ad:
char173:
    .......
    .......
    .......
    .......
    .......
    .......
    .......
    .......
    .......
    .......
    .......
    .......
    .......

u+00ae:
char174:
    .......
    .......
    ..@@@@.
    .@....@
    .@@@..@
    .@@.@.@
    @@@@.@.
    @@.@.@.
    @....@.
    .@@@@..
    .......
    .......
    .......

u+00af:
char175:
    @@@@@@@
    .......
    .......
    .......
    .......
    .......
    .......
    .......
    .......
    .......
    .......
    .......
    .......

u+00b0:
char176:
    .......
    ..@@...
    .@..@..
    .@..@..
    ..@@...
    .......
    .......
    .......
    .......
    .......
    .......
    .......
    .......

u+00b1:
char177:
    .......
    .......
    .......
    ...@...
    ...@...
    @@@@@@.
    ..@....
    ..@....
    .......
    @@@@@..
    .......
    .......
    .......

u+00b2:
char178:
    .......
    .@@@...
    ....@..
    ...@...
    ..@....
    .@@@@..
    .......
    .......
    .......
    .......
    .......
    .......
    .......

u+00b3:
char179:
    .......
    .@@@...
    ....@..
    ..@@...
    ....@..
    .@@@...
    .......
    .......
    .......
    .......
    .......
    .......
    .......

u+00b4:
char180:
    .......
    ....@..
    ...@...
    .......
    .......
    .......
    .......
    .......
    .......
    .......
    .......
    .......
    .......

u+00b5:
char181:
    .......
    .......
    .......
    .......
    ..@..@.
    ..@..@.
    ..@..@.
    .@..@..
    .@@.@..
    .@.@...
    .@.....
    @......
    .......

u+00b6:
char182:
    .......
    .......
    ..@@@@.
    .@@@.@.
    .@@@.@.
    ..@@.@.
    ...@.@.
    ...@.@.
    ...@.@.
    ...@.@.
    ...@.@.
    .......
    .......

u+00b7:
char183:
    .......
    .......
    .......
    .......
    .......
    ...@...
    ..@@@..
    ...@...
    .......
    .......
    .......
    .......
    .......

u+00b8:
char184:
    .......
    .......
    .......
    .......
    .......
    .......
    .......
    .......
    .......
    ..@@...
    ...@...
    ..@....
    .......

u+00b9:
char185:
    .......
    ..@....
    .@@....
    ..@....
    ..@....
    .@@@...
    .......
    .......
    .......
    .......
    .......
    .......
    .......

u+00ba:
char186:
    .......
    ..@@...
    .@..@..
    .@..@..
    .@..@..
    ..@@...
    .......
    .......
    .......
    .......
    .......
    .......
    .......

u+00bb:
char187:
    .......
    .......
    .......
    .......
    ..@.@..
    ...@.@.
    ...@.@.
    ..@.@..
    .@.@...
    .......
    .......
    .......
    .......

u+00bc:
char188:
    .......
    .@...@.
    .@..@..
    .@..@..
    .@.@...
    ...@...
    ..@..@.
    ..@.@@.
    .@.@@@.
    .@...@.
    .......
    .......
    .......

u+00bd:
char189:
    .......
    .@...@.
    .@..@..
    .@..@..
    .@.@...
    ...@...
    ..@.@..
    ..@..@.
    .@..@..
    .@..@@.
    .......
    .......
    .......

u+00be:
char190:
    .......
    .@@..@.
    ..@.@..
    .@..@..
    ..@@...
    .@@@...
    ..@..@.
    ..@.@@.
    .@.@@@.
    .@...@.
    .......
    .......
    .......

u+00bf:
char191:
    .......
    .......
    ....@..
    ....@..
    .......
    ...@...
    ..@....
    .@.....
    .@...@.
    ..@@@..
    .......
    .......
    .......

u+00c0:
char192:
    ....@..
    .....@.
    .......
    ....@@.
    ...@.@.
    ..@..@.
    .@@@@@.
    .@...@.
    @....@.
    @....@.
    .......
    .......
    .......

u+00c1:
char193:
    .....@.
    ....@..
    .......
    ....@@.
    ...@.@.
    ..@..@.
    .@@@@@.
    .@...@.
    @....@.
    @....@.
    .......
    .......
    .......

u+00c2:
char194:
    ....@..
    ...@.@.
    .......
    ....@@.
    ...@.@.
    ..@..@.
    .@@@@@.
    .@...@.
    @....@.
    @....@.
    .......
    .......
    .......

u+00c3:
char195:
    ...@@.@
    ..@.@@.
    .......
    ....@@.
    ...@.@.
    ..@..@.
    .@@@@@.
    .@...@.
    @....@.
    @....@.
    .......
    .......
    .......

u+00c4:
char196:
    .......
    ...@.@.
    .......
    ....@@.
    ...@.@.
    ..@..@.
    .@@@@@.
    .@...@.
    @....@.
    @....@.
    .......
    .......
    .......

u+00c5:
char197:
    ....@..
    ...@.@.
    ....@..
    ...@.@.
    ..@..@.
    ..@..@.
    .@@@@@.
    .@...@.
    @....@.
    @....@.
    .......
    .......
    .......

u+00c6:
char198:
    .......
    .......
    ....@@@
    ...@.@.
    ..@.@..
    ..@.@@.
    .@@@@..
    .@..@..
    @..@...
    @..@@..
    .......
    .......
    .......

u+00c7:
char199:
    .......
    .......
    ...@@@.
    ..@...@
    .@.....
    .@.....
    @......
    @......
    @...@..
    .@@@...
    ..@....
    ..@....
    .@.....

u+00c8:
char200:
    ....@..
    .....@.
    .......
    ..@@@@@
    ..@....
    .@.....
    .@@@@..
    .@.....
    @......
    @@@@@..
    .......
    .......
    .......

u+00c9:
char201:
    .....@.
    ....@..
    .......
    ..@@@@@
    ..@....
    .@.....
    .@@@@..
    .@.....
    @......
    @@@@@..
    .......
    .......
    .......

u+00ca:
char202:
    ....@..
    ...@.@.
    .......
    ..@@@@@
    ..@....
    .@.....
    .@@@@..
    .@.....
    @......
    @@@@@..
    .......
    .......
    .......

u+00cb:
char203:
    .......
    ...@.@.
    .......
    ..@@@@@
    ..@....
    .@.....
    .@@@@..
    .@.....
    @......
    @@@@@..
    .......
    .......
    .......

u+00cc:
char204:
    ....@..
    .....@.
    .......
    ...@@@.
    ....@..
    ...@...
    ...@...
    ..@....
    ..@....
    .@@@...
    .......
    .......
    .......

u+00cd:
char205:
    .....@.
    ....@..
    .......
    ...@@@.
    ....@..
    ...@...
    ...@...
    ..@....
    ..@....
    .@@@...
    .......
    .......
    .......

u+00ce:
char206:
    ....@..
    ...@.@.
    .......
    ...@@@.
    ....@..
    ...@...
    ...@...
    ..@....
    ..@....
    .@@@...
    .......
    .......
    .......

u+00cf:
char207:
    .......
    ...@.@.
    .......
    ...@@@.
    ....@..
    ...@...
    ...@...
    ..@....
    ..@....
    .@@@...
    .......
    .......
    .......

u+00d0:
char208:
    .......
    .......
    .......
    ...@@..
    ...@.@.
    ..@..@.
    .@@@.@.
    ..@..@.
    .@..@..
    .@@@...
    .......
    .......
    .......

u+00d1:
char209:
    ...@@.@
    ..@.@@.
    .......
    ..@...@
    ..@@..@
    .@..@@.
    .@...@.
    @...@..
    @...@..
    @...@..
    .......
    .......
    .......

u+00d2:
char210:
    ....@..
    .....@.
    .......
    ...@@@.
    ..@...@
    .@....@
    .@...@.
    @....@.
    @...@..
    .@@@...
    .......
    .......
    .......

u+00d3:
char211:
    .....@.
    ....@..
    .......
    ...@@@.
    ..@...@
    .@....@
    .@...@.
    @....@.
    @...@..
    .@@@...
    .......
    .......
    .......

u+00d4:
char212:
    ....@..
    ...@.@.
    .......
    ...@@@.
    ..@...@
    .@....@
    .@...@.
    @....@.
    @...@..
    .@@@...
    .......
    .......
    .......

u+00d5:
char213:
    ...@@.@
    ..@.@@.
    .......
    ...@@@.
    ..@...@
    .@....@
    .@...@.
    @....@.
    @...@..
    .@@@...
    .......
    .......
    .......

u+00d6:
char214:
    .......
    ...@.@.
    .......
    ...@@@.
    ..@...@
    .@....@
    .@...@.
    @....@.
    @...@..
    .@@@...
    .......
    .......
    .......

u+00d7:
char215:
    .......
    .......
    .......
    .......
    ..@..@.
    ..@.@..
    ...@...
    ..@.@..
    .@..@..
    .......
    .......
    .......
    .......

u+00d8:
char216:
    .......
    ......@
    ...@@@.
    ..@..@@
    .@..@.@
    .@.@..@
    @..@.@.
    @.@..@.
    @@..@..
    .@@@...
    @......
    .......
    .......

u+00d9:
char217:
    ....@..
    .....@.
    .......
    ..@...@
    ..@...@
    .@...@.
    .@...@.
    @...@..
    @...@..
    .@@@...
    .......
    .......
    .......

u+00da:
char218:
    .....@.
    ....@..
    .......
    ..@...@
    ..@...@
    .@...@.
    .@...@.
    @...@..
    @...@..
    .@@@...
    .......
    .......
    .......

u+00db:
char219:
    ....@..
    ...@.@.
    .......
    ..@...@
    ..@...@
    .@...@.
    .@...@.
    @...@..
    @...@..
    .@@@...
    .......
    .......
    .......

u+00dc:
char220:
    .......
    ...@.@.
    .......
    ..@...@
    ..@...@
    .@...@.
    .@...@.
    @...@..
    @...@..
    .@@@...
    .......
    .......
    .......

u+00dd:
char221:
    .....@.
    ....@..
    .......
    .@....@
    .@....@
    ..@..@.
    ..@.@..
    ...@...
    ..@....
    ..@....
    .......
    .......
    .......

u+00de:
char222:
    .......
    .......
    ..@....
    ..@....
    .@@@@..
    .@...@.
    .@..@..
    @@@@...
    @......
    @......
    .......
    .......
    .......

u+00df:
char223:
    .......
    ....@@.
    ...@..@
    ...@.@.
    ..@@@..
    ..@..@.
    ..@..@.
    .@..@..
    .@..@..
    .@@@...
    @......
    .......
    .......

u+00e0:
char224:
    .......
    ...@...
    ....@..
    .......
    ..@@@..
    .....@.
    .@@@@@.
    @....@.
    @...@..
    .@@@@..
    .......
    .......
    .......

u+00e1:
char225:
    .......
    ....@..
    ...@...
    .......
    ..@@@..
    .....@.
    .@@@@@.
    @....@.
    @...@..
    .@@@@..
    .......
    .......
    .......

u+00e2:
char226:
    .......
    ....@..
    ...@.@.
    .......
    ..@@@..
    .....@.
    .@@@@@.
    @....@.
    @...@..
    .@@@@..
    .......
    .......
    .......

u+00e3:
char227:
    .......
    ...@@.@
    ..@.@@.
    .......
    ..@@@..
    .....@.
    .@@@@@.
    @....@.
    @...@..
    .@@@@..
    .......
    .......
    .......

u+00e4:
char228:
    .......
    ...@.@.
    .......
    .......
    ..@@@..
    .....@.
    .@@@@@.
    @....@.
    @...@..
    .@@@@..
    .......
    .......
    .......

u+00e5:
char229:
    ....@..
    ...@.@.
    ....@..
    .......
    ..@@@..
    .....@.
    .@@@@@.
    @....@.
    @...@..
    .@@@@..
    .......
    .......
    .......

u+00e6:
char230:
    .......
    .......
    .......
    .......
    ..@.@..
    ...@.@.
    .@@@@@.
    @.@....
    @.@.@..
    .@.@...
    .......
    .......
    .......

u+00e7:
char231:
    .......
    .......
    .......
    .......
    ..@@@..
    .@...@.
    .@.....
    @......
    @...@..
    .@@@...
    ..@....
    ..@....
    .@.....

u+00e8:
char232:
    .......
    ...@...
    ....@..
    .......
    ..@@@..
    .@...@.
    .@@@@@.
    @......
    @...@..
    .@@@...
    .......
    .......
    .......

u+00e9:
char233:
    .......
    ....@..
    ...@...
    .......
    ..@@@..
    .@...@.
    .@@@@@.
    @......
    @...@..
    .@@@...
    .......
    .......
    .......

u+00ea:
char234:
    .......
    ....@..
    ...@.@.
    .......
    ..@@@..
    .@...@.
    .@@@@@.
    @......
    @...@..
    .@@@...
    .......
    .......
    .......

u+00eb:
char235:
    .......
    ...@.@.
    .......
    .......
    ..@@@..
    .@...@.
    .@@@@@.
    @......
    @...@..
    .@@@...
    .......
    .......
    .......

u+00ec:
char236:
    .......
    ..@....
    ...@...
    .......
    ..@@...
    ...@...
    ...@...
    ..@....
    ..@....
    .@@@...
    .......
    .......
    .......

u+00ed:
char237:
    .......
    ....@..
    ...@...
    .......
    ..@@...
    ...@...
    ...@...
    ..@....
    ..@....
    .@@@...
    .......
    .......
    .......

u+00ee:
char238:
    .......
    ...@...
    ..@.@..
    .......
    ..@@...
    ...@...
    ...@...
    ..@....
    ..@....
    .@@@...
    .......
    .......
    .......

u+00ef:
char239:
    .......
    ..@.@..
    .......
    .......
    ..@@...
    ...@...
    ...@...
    ..@....
    ..@....
    .@@@...
    .......
    .......
    .......

u+00f0:
char240:
    .......
    ..@@.@.
    ....@..
    ...@.@.
    .....@.
    ..@@@@.
    .@...@.
    @...@..
    @...@..
    .@@@...
    .......
    .......
    .......

u+00f1:
char241:
    .......
    ...@@.@
    ..@.@@.
    .......
    .@@@@..
    .@...@.
    .@...@.
    @...@..
    @...@..
    @...@..
    .......
    .......
    .......

u+00f2:
char242:
    .......
    ...@...
    ....@..
    .......
    ..@@@..
    .@...@.
    .@...@.
    @...@..
    @...@..
    .@@@...
    .......
    .......
    .......

u+00f3:
char243:
    .......
    ....@..
    ...@...
    .......
    ..@@@..
    .@...@.
    .@...@.
    @...@..
    @...@..
    .@@@...
    .......
    .......
    .......

u+00f4:
char244:
    .......
    ....@..
    ...@.@.
    .......
    ..@@@..
    .@...@.
    .@...@.
    @...@..
    @...@..
    .@@@...
    .......
    .......
    .......

u+00f5:
char245:
    .......
    ...@@.@
    ..@.@@.
    .......
    ..@@@..
    .@...@.
    .@...@.
    @...@..
    @...@..
    .@@@...
    .......
    .......
    .......

u+00f6:
char246:
    .......
    ...@.@.
    .......
    .......
    ..@@@..
    .@...@.
    .@...@.
    @...@..
    @...@..
    .@@@...
    .......
    .......
    .......

u+00f7:
char247:
    .......
    .......
    .......
    .......
    ...@...
    .......
    @@@@@@.
    .......
    ..@....
    .......
    .......
    .......
    .......

u+00f8:
char248:
    .......
    .......
    .......
    .....@.
    ..@@@..
    .@..@@.
    .@.@.@.
    @.@.@..
    @@..@..
    .@@@...
    @......
    .......
    .......

u+00f9:
char249:
    .......
    ...@...
    ....@..
    .......
    .@...@.
    .@...@.
    .@...@.
    @...@..
    @...@..
    .@@@@..
    .......
    .......
    .......

u+00fa:
char250:
    .......
    ....@..
    ...@...
    .......
    .@...@.
    .@...@.
    .@...@.
    @...@..
    @...@..
    .@@@@..
    .......
    .......
    .......

u+00fb:
char251:
    .......
    ....@..
    ...@.@.
    .......
    .@...@.
    .@...@.
    .@...@.
    @...@..
    @...@..
    .@@@@..
    .......
    .......
    .......

u+00fc:
char252:
    .......
    ...@.@.
    .......
    .......
    .@...@.
    .@...@.
    .@...@.
    @...@..
    @...@..
    .@@@@..
    .......
    .......
    .......

u+00fd:
char253:
    .......
    ....@..
    ...@...
    .......
    .@...@.
    .@...@.
    .@...@.
    @...@..
    @...@..
    .@@@@..
    ...@...
    ...@...
    @@@....

u+00fe:
char254:
    .......
    .......
    ..@....
    ..@....
    .@@@@..
    .@...@.
    .@...@.
    @...@..
    @...@..
    @@@@...
    @......
    @......
    .......

u+00ff:
char255:
    .......
    ...@.@.
    .......
    .......
    .@...@.
    .@...@.
    .@...@.
    @...@..
    @...@..
    .@@@@..
    ...@...
    ...@...
    @@@....

u+0100:
Amacron:
    .......
    ..@@@@.
    .......
    ...@@..
    ..@..@.
    .@....@
    .@....@
    .@@@@@.
    @....@.
    @....@.
    @....@.
    .......
    .......

u+0101:
amacron:
    .......
    .......
    .......
    ..@@@@.
    .......
    ..@@@@.
    ......@
    .@@@@@.
    @....@.
    @...@@.
    .@@@.@.
    .......
    .......

u+0102:
Abreve:
    .......
    .@....@
    ..@@@@.
    .......
    ...@@..
    ..@..@.
    .@....@
    .@....@
    .@@@@@.
    @....@.
    @....@.
    .......
    .......

u+0103:
abreve:
    .......
    .......
    .@....@
    ..@@@@.
    .......
    ..@@@@.
    ......@
    .@@@@@.
    @....@.
    @...@@.
    .@@@.@.
    .......
    .......

u+0104:
Aogonek:
    .......
    .......
    ...@@..
    ..@..@.
    .@....@
    .@....@
    .@....@
    .@@@@@@
    @....@.
    @....@.
    @....@.
    ....@..
    .....@@

u+0105:
aogonek:
    .......
    .......
    .......
    .......
    .......
    ..@@@@.
    ......@
    .@@@@@.
    @....@.
    @....@.
    .@@@@@.
    ....@..
    .....@@

u+0106:
Cacute:
    .......
    ....@..
    ...@...
    .......
    ..@@@@.
    .@....@
    .@.....
    @......
    @......
    @....@.
    .@@@@..
    .......
    .......

u+0107:
cacute:
    .......
    .......
    .....@.
    ....@..
    .......
    ..@@@@.
    .@....@
    @......
    @......
    @....@.
    .@@@@..
    .......
    .......

u+0108:
Ccircumflex:
    .......
    ...@@..
    ..@..@.
    .......
    ..@@@@.
    .@....@
    .@.....
    @......
    @......
    @....@.
    .@@@@..
    .......
    .......

u+0109:
ccircumflex:
    .......
    .......
    ...@@..
    ..@..@.
    .......
    ..@@@@.
    .@....@
    @......
    @......
    @....@.
    .@@@@..
    .......
    .......

u+010a:
Cdotaccent:
    .......
    ...@@..
    .......
    ..@@@@.
    .@....@
    .@.....
    .@.....
    @......
    @......
    @....@.
    .@@@@..
    .......
    .......

u+010b:
cdotaccent:
    .......
    .......
    .......
    ...@@..
    .......
    ..@@@@.
    .@....@
    @......
    @......
    @....@.
    .@@@@..
    .......
    .......

u+010c:
Ccaron:
    .......
    ..@..@.
    ...@@..
    .......
    ..@@@@.
    .@....@
    .@.....
    @......
    @......
    @....@.
    .@@@@..
    .......
    .......

u+010d:
ccaron:
    .......
    .......
    ..@..@.
    ...@@..
    .......
    ..@@@@.
    .@....@
    @......
    @......
    @....@.
    .@@@@..
    .......
    .......

u+010e:
Dcaron:
    .......
    ..@..@.
    ...@@..
    .......
    .@@@@@.
    ..@...@
    ..@...@
    .@...@.
    .@...@.
    .@...@.
    @@@@@..
    .......
    .......

u+010f:
dcaron:
    .......
    ..@..@.
    ...@@..
    ......@
    ......@
    ..@@@.@
    .@...@.
    @....@.
    @....@.
    @...@@.
    .@@@.@.
    .......
    .......

u+0110:
Dcroat:
    .......
    .......
    .@@@@@.
    ..@...@
    ..@...@
    ..@...@
    @@@@..@
    .@...@.
    .@...@.
    .@...@.
    @@@@@..
    .......
    .......

u+0111:
dcroat:
    .......
    .......
    ......@
    ....@@@
    ......@
    ..@@@.@
    .@...@.
    @....@.
    @....@.
    @...@@.
    .@@@.@.
    .......
    .......

u+0112:
Emacron:
    .......
    .......
    ..@@@@.
    .......
    .@@@@@@
    .@.....
    .@.....
    .@@@...
    @......
    @......
    @@@@@@.
    .......
    .......

u+0113:
emacron:
    .......
    .......
    .......
    ..@@@@.
    .......
    ..@@@@.
    .@....@
    .@@@@@.
    @......
    @....@.
    .@@@@..
    .......
    .......

u+0114:
Ebreve:
    .......
    .@....@
    ..@@@@.
    .......
    .@@@@@@
    .@.....
    .@.....
    .@@@...
    @......
    @......
    @@@@@@.
    .......
    .......

u+0115:
ebreve:
    .......
    .......
    .@....@
    ..@@@@.
    .......
    ..@@@@.
    .@....@
    .@@@@@.
    @......
    @....@.
    .@@@@..
    .......
    .......

u+0116:
Edotaccent:
    .......
    ...@@..
    .......
    .@@@@@@
    .@.....
    .@.....
    .@@@@..
    @......
    @......
    @......
    @@@@@@.
    .......
    .......

u+0117:
edotaccent:
    .......
    .......
    .......
    ...@@..
    .......
    ..@@@@.
    .@....@
    .@@@@@.
    @......
    @....@.
    .@@@@..
    .......
    .......

u+0118:
Eogonek:
    .......
    .......
    .@@@@@@
    .@.....
    .@.....
    .@.....
    .@@@@..
    @......
    @......
    @......
    @@@@@@.
    ..@....
    ...@@..

u+0119:
eogonek:
    .......
    .......
    .......
    .......
    .......
    ..@@@@.
    .@....@
    .@@@@@.
    @......
    @....@.
    .@@@@..
    .@.....
    ..@@...

u+011a:
Ecaron:
    .......
    ..@..@.
    ...@@..
    .......
    .@@@@@@
    .@.....
    .@.....
    .@@@...
    @......
    @......
    @@@@@@.
    .......
    .......

u+011b:
ecaron:
    .......
    .......
    ..@..@.
    ...@@..
    .......
    ..@@@@.
    .@....@
    .@@@@@.
    @......
    @....@.
    .@@@@..
    .......
    .......

u+011c:
Gcircumflex:
    .......
    ...@@..
    ..@..@.
    .......
    ..@@@@.
    .@....@
    .@.....
    @..@@@.
    @....@.
    @...@@.
    .@@@.@.
    .......
    .......

u+011d:
gcircumflex:
    .......
    .......
    ...@@..
    ..@..@.
    .......
    ..@@@.@
    .@...@.
    @...@..
    .@@@...
    @......
    .@@@@..
    @....@.
    .@@@@..

u+011e:
Gbreve:
    .......
    .@....@
    ..@@@@.
    .......
    ..@@@@.
    .@....@
    .@.....
    @..@@@.
    @....@.
    @...@@.
    .@@@.@.
    .......
    .......

u+011f:
gbreve:
    .......
    .......
    .@....@
    ..@@@@.
    .......
    ..@@@.@
    .@...@.
    @...@..
    .@@@...
    @......
    .@@@@..
    @....@.
    .@@@@..

u+0120:
Gdotaccent:
    .......
    ...@@..
    .......
    ..@@@@.
    .@....@
    .@.....
    .@.....
    @..@@@.
    @....@.
    @...@@.
    .@@@.@.
    .......
    .......

u+0121:
gdotaccent:
    .......
    .......
    .......
    ...@@..
    .......
    ..@@@.@
    .@...@.
    @...@..
    .@@@...
    @......
    .@@@@..
    @....@.
    .@@@@..

u+0122:
Gcommaaccent:
    .......
    .......
    ..@@@@.
    .@....@
    .@.....
    .@.....
    .@.....
    @..@@@.
    @....@.
    @...@@.
    .@@@.@.
    ...@...
    ..@....

u+0123:
gcommaaccent:
    .......
    ....@..
    ...@...
    ...@@..
    .......
    ..@@@.@
    .@...@.
    @...@..
    .@@@...
    @......
    .@@@@..
    @....@.
    .@@@@..

u+0124:
Hcircumflex:
    .......
    ...@@..
    ..@..@.
    .......
    .@....@
    .@....@
    .@....@
    .@@@@@.
    @....@.
    @....@.
    @....@.
    .......
    .......

u+0125:
hcircumflex:
    .......
    ....@@.
    ...@..@
    .@.....
    .@.....
    .@.....
    .@@@@..
    .@...@.
    @...@..
    @...@..
    @...@..
    .......
    .......

u+0126:
Hbar:
    .......
    .......
    .@...@.
    .@...@.
    @@@@@@@
    .@...@.
    .@@@@..
    @...@..
    @...@..
    @...@..
    @...@..
    .......
    .......

u+0127:
hbar:
    .......
    .......
    .@.....
    @@@@@..
    .@.....
    .@.@@..
    .@@..@.
    .@...@.
    @...@..
    @...@..
    @...@..
    .......
    .......

u+0128:
Itilde:
    .......
    ..@..@.
    .@.@@..
    .......
    .@@@@@.
    ...@...
    ...@...
    ..@....
    ..@....
    ..@....
    @@@@@..
    .......
    .......

u+0129:
itilde:
    .......
    .......
    ..@..@.
    .@.@@..
    .......
    ..@@...
    ...@...
    ...@...
    ..@....
    ..@....
    @@@@@..
    .......
    .......

u+012a:
Imacron:
    .......
    .@@@@@.
    .......
    .@@@@@.
    ...@...
    ...@...
    ...@...
    ..@....
    ..@....
    ..@....
    @@@@@..
    .......
    .......

u+012b:
imacron:
    .......
    .......
    .......
    .@@@@@.
    .......
    ..@@...
    ...@...
    ...@...
    ..@....
    ..@....
    @@@@@..
    .......
    .......

u+012c:
Ibreve:
    .......
    .@...@.
    ..@@@..
    .......
    .@@@@@.
    ...@...
    ...@...
    ..@....
    ..@....
    ..@....
    @@@@@..
    .......
    .......

u+012d:
ibreve:
    .......
    .......
    .@...@.
    ..@@@..
    .......
    ..@@...
    ...@...
    ...@...
    ..@....
    ..@....
    @@@@@..
    .......
    .......

u+012e:
Iogonek:
    .......
    .......
    .@@@@@.
    ...@...
    ...@...
    ...@...
    ...@...
    ..@....
    ..@....
    ..@....
    @@@@@..
    .@.....
    ..@@...

u+012f:
iogonek:
    .......
    .......
    .......
    ....@..
    .......
    ...@@..
    ....@..
    ....@..
    ...@...
    ...@...
    .@@@@@.
    ..@....
    ...@@..

u+0130:
Idotaccent:
    .......
    ...@...
    .......
    .@@@@@.
    ...@...
    ...@...
    ...@...
    ..@....
    ..@....
    ..@....
    @@@@@..
    .......
    .......

u+0131:
dotlessi:
    .......
    .......
    .......
    .......
    .......
    ...@@..
    ....@..
    ....@..
    ...@...
    ...@...
    .@@@@@.
    .......
    .......

u+0132:
IJ:
    .......
    .......
    .@..@@@
    .@...@.
    .@...@.
    .@...@.
    .@...@.
    @...@..
    @...@..
    @.@.@..
    @..@...
    .......
    .......

u+0133:
ij:
    .......
    .......
    .......
    .@...@.
    .......
    .@..@@.
    .@...@.
    .@...@.
    @...@..
    @...@..
    @.@.@..
    ..@.@..
    ...@...

u+0134:
Jcircumflex:
    .......
    ....@@.
    ...@..@
    .......
    ....@@@
    .....@.
    .....@.
    ....@..
    ....@..
    @...@..
    .@@@...
    .......
    .......

u+0135:
jcircumflex:
    .......
    .......
    ....@@.
    ...@..@
    .......
    ....@@.
    .....@.
    .....@.
    ....@..
    ....@..
    @...@..
    @...@..
    .@@@...

u+0136:
Kcommaaccent:
    .......
    .......
    .@....@
    .@...@.
    .@..@..
    .@.@...
    .@@....
    @.@....
    @..@...
    @...@..
    @....@.
    .@.....
    @......

u+0137:
kcommaaccent:
    .......
    .......
    .@.....
    .@.....
    .@.....
    .@...@.
    .@.@@..
    .@@....
    @..@...
    @...@..
    @....@.
    .@.....
    @......

u+0138:
kgreenlandic:
    .......
    .......
    .......
    .......
    .@....@
    .@...@.
    .@.@@..
    .@@....
    @..@...
    @...@..
    @....@.
    .......
    .......

u+0139:
Lacute:
    .......
    ..@....
    .@.....
    .......
    .@.....
    .@.....
    .@.....
    @......
    @......
    @......
    @@@@@@.
    .......
    .......

u+013a:
lacute:
    .......
    ....@..
    ...@...
    .......
    ...@@..
    ....@..
    ....@..
    ...@...
    ...@...
    ...@...
    .@@@@@.
    .......
    .......

u+013b:
Lcommaaccent:
    .......
    .......
    .@.....
    .@.....
    .@.....
    .@.....
    .@.....
    @......
    @......
    @......
    @@@@@@.
    ...@...
    ..@....

u+013c:
lcommaaccent:
    .......
    .......
    ...@@..
    ....@..
    ....@..
    ....@..
    ....@..
    ...@...
    ...@...
    ...@...
    .@@@@@.
    ...@...
    ..@....

u+013d:
Lcaron:
    .......
    .@..@..
    ..@@...
    .......
    .@.....
    .@.....
    .@.....
    @......
    @......
    @......
    @@@@@@.
    .......
    .......

u+013e:
lcaron:
    .......
    ..@..@.
    ...@@..
    .......
    ...@@..
    ....@..
    ....@..
    ...@...
    ...@...
    ...@...
    .@@@@@.
    .......
    .......

u+013f:
Ldot:
    .......
    .......
    .@.....
    .@.....
    .@.....
    .@..@..
    .@..@..
    @......
    @......
    @......
    @@@@@@.
    .......
    .......

u+0140:
ldot:
    .......
    .......
    ..@@...
    ...@...
    ...@...
    ...@..@
    ...@..@
    ..@....
    ..@....
    ..@....
    @@@@@..
    .......
    .......

u+0141:
Lslash:
    .......
    .......
    ..@....
    ..@....
    ..@.@..
    ..@@...
    .@.....
    @@.....
    .@.....
    .@.....
    .@@@@@.
    .......
    .......

u+0142:
lslash:
    .......
    .......
    ..@@...
    ...@...
    ...@.@.
    ...@@..
    ..@....
    .@@....
    ..@....
    ..@....
    @@@@@..
    .......
    .......

u+0143:
Nacute:
    .......
    ....@..
    ...@...
    .......
    .@....@
    .@@...@
    .@.@..@
    @..@.@.
    @...@@.
    @...@@.
    @....@.
    .......
    .......

u+0144:
nacute:
    .......
    .......
    ....@..
    ...@...
    .......
    .@.@@@.
    .@@...@
    .@....@
    @....@.
    @....@.
    @....@.
    .......
    .......

u+0145:
Ncommaaccent:
    .......
    .......
    .@....@
    .@....@
    .@@...@
    .@.@..@
    .@..@.@
    @...@@.
    @....@.
    @....@.
    @....@.
    .@.....
    @......

u+0146:
ncommaaccent:
    .......
    .......
    .......
    .......
    .......
    .@.@@@.
    .@@...@
    .@....@
    @....@.
    @....@.
    @....@.
    .@.....
    @......

u+0147:
Ncaron:
    .......
    ..@..@.
    ...@@..
    .......
    .@....@
    .@@...@
    .@.@..@
    @..@.@.
    @...@@.
    @...@@.
    @....@.
    .......
    .......

u+0148:
ncaron:
    .......
    .......
    ..@..@.
    ...@@..
    .......
    .@.@@@.
    .@@...@
    .@....@
    @....@.
    @....@.
    @....@.
    .......
    .......

u+0149:
napostrophe:
    .......
    @@.....
    .@.....
    @......
    .......
    .@.@@..
    .@@..@.
    .@...@.
    @...@..
    @...@..
    @...@..
    .......
    .......

u+014a:
Eng:
    .......
    .......
    .@....@
    .@....@
    .@@...@
    .@.@..@
    .@..@.@
    @....@.
    @....@.
    @....@.
    @....@.
    .....@.
    ...@@..

u+014b:
eng:
    .......
    .......
    .......
    .......
    .......
    .@.@@@.
    .@@...@
    .@....@
    @....@.
    @....@.
    @....@.
    .....@.
    ...@@..

u+014c:
Omacron:
    .......
    .......
    ..@@@@.
    .......
    ..@@@@.
    .@....@
    .@....@
    @....@.
    @....@.
    @....@.
    .@@@@..
    .......
    .......

u+014d:
omacron:
    .......
    .......
    .......
    ..@@@@.
    .......
    ..@@@@.
    .@....@
    .@....@
    @....@.
    @....@.
    .@@@@..
    .......
    .......

u+014e:
Obreve:
    .......
    .@....@
    ..@@@@.
    .......
    ..@@@@.
    .@....@
    .@....@
    @....@.
    @....@.
    @....@.
    .@@@@..
    .......
    .......

u+014f:
obreve:
    .......
    .......
    .@....@
    ..@@@@.
    .......
    ..@@@@.
    .@....@
    .@....@
    @....@.
    @....@.
    .@@@@..
    .......
    .......

u+0150:
Ohungarumlaut:
    .......
    ...@..@
    ..@..@.
    .......
    ..@@@@.
    .@....@
    .@....@
    @....@.
    @....@.
    @....@.
    .@@@@..
    .......
    .......

u+0151:
ohungarumlaut:
    .......
    .......
    ...@..@
    ..@..@.
    .......
    ..@@@@.
    .@....@
    .@....@
    @....@.
    @....@.
    .@@@@..
    .......
    .......

u+0152:
OE:
    .......
    .......
    ..@@@@@
    .@..@..
    .@..@..
    .@..@..
    .@..@@@
    @..@...
    @..@...
    @..@...
    .@@@@@.
    .......
    .......

u+0153:
oe:
    .......
    .......
    .......
    .......
    .......
    ..@@.@.
    .@..@.@
    @..@@@.
    @..@...
    @..@.@.
    .@@.@..
    .......
    .......

u+0154:
Racute:
    .......
    ....@..
    ...@...
    .......
    .@@@@@.
    .@....@
    .@....@
    .@@@@@.
    @..@...
    @...@..
    @....@.
    .......
    .......

u+0155:
racute:
    .......
    .......
    ...@...
    ..@....
    .......
    @.@@@..
    .@...@.
    .@.....
    @......
    @......
    @......
    .......
    .......

u+0156:
Rcommaaccent:
    .......
    .......
    .@@@@@.
    .@....@
    .@....@
    .@....@
    .@@@@@.
    @.@....
    @..@...
    @...@..
    @....@.
    .@.....
    @......

u+0157:
rcommaaccent:
    .......
    .......
    .......
    .......
    .......
    .@.@@@.
    ..@...@
    ..@....
    .@.....
    .@.....
    .@.....
    .@.....
    @......

u+0158:
Rcaron:
    .......
    ..@..@.
    ...@@..
    .......
    .@@@@@.
    .@....@
    .@....@
    .@@@@@.
    @..@...
    @...@..
    @....@.
    .......
    .......

u+0159:
rcaron:
    .......
    .......
    .@..@..
    ..@@...
    .......
    @.@@@..
    .@...@.
    .@.....
    @......
    @......
    @......
    .......
    .......

u+015a:
Sacute:
    .......
    ....@..
    ...@...
    .......
    ..@@@@.
    .@....@
    .@.....
    ..@@@..
    .....@.
    @....@.
    .@@@@..
    .......
    .......

u+015b:
sacute:
    .......
    .......
    ....@..
    ...@...
    .......
    ..@@@@.
    .@....@
    ..@@...
    ....@..
    @....@.
    .@@@@..
    .......
    .......

u+015c:
Scircumflex:
    .......
    ...@@..
    ..@..@.
    .......
    ..@@@@.
    .@....@
    .@.....
    ..@@@..
    .....@.
    @....@.
    .@@@@..
    .......
    .......

u+015d:
scircumflex:
    .......
    .......
    ...@@..
    ..@..@.
    .......
    ..@@@@.
    .@....@
    ..@@...
    ....@..
    @....@.
    .@@@@..
    .......
    .......

u+015e:
Scedilla:
    .......
    .......
    ..@@@@.
    .@....@
    .@.....
    .@.....
    ..@@@..
    .....@.
    .....@.
    @....@.
    .@@@@..
    ...@...
    ..@....

u+015f:
scedilla:
    .......
    .......
    .......
    .......
    .......
    ..@@@@.
    .@....@
    ..@@...
    ....@..
    @....@.
    .@@@@..
    ...@...
    ..@....

u+0160:
Scaron:
    .......
    ..@..@.
    ...@@..
    .......
    ..@@@@.
    .@....@
    .@.....
    ..@@@..
    .....@.
    @....@.
    .@@@@..
    .......
    .......

u+0161:
scaron:
    .......
    .......
    ..@..@.
    ...@@..
    .......
    ..@@@@.
    .@....@
    ..@@...
    ....@..
    @....@.
    .@@@@..
    .......
    .......

u+0162:
Tcommaaccent:
    .......
    .......
    .@@@@@.
    ...@...
    ...@...
    ...@...
    ...@...
    ..@....
    ..@....
    ..@....
    ..@....
    ...@...
    ..@....

u+0163:
tcommaaccent:
    .......
    .......
    .......
    ..@....
    ..@....
    .@@@@..
    ..@....
    .@.....
    .@.....
    .@...@.
    ..@@@..
    ...@...
    ..@....

u+0164:
Tcaron:
    .......
    ..@..@.
    ...@@..
    .......
    .@@@@@.
    ...@...
    ...@...
    ..@....
    ..@....
    ..@....
    ..@....
    .......
    .......

u+0165:
tcaron:
    .......
    ..@..@.
    ...@@..
    .......
    ..@....
    .@@@@..
    ..@....
    ..@....
    .@.....
    .@...@.
    ..@@@..
    .......
    .......

u+0166:
Tbar:
    .......
    .......
    .@@@@@.
    ...@...
    ...@...
    ...@...
    .@@@@..
    ..@....
    ..@....
    ..@....
    ..@....
    .......
    .......

u+0167:
tbar:
    .......
    .......
    ....@..
    ..@@@@.
    ...@...
    ...@...
    .@@@@..
    ..@....
    ..@....
    ..@..@.
    ...@@..
    .......
    .......

u+0168:
Utilde:
    .......
    ..@@..@
    .@..@@.
    .......
    .@....@
    .@....@
    .@....@
    @....@.
    @....@.
    @....@.
    .@@@@..
    .......
    .......

u+0169:
utilde:
    .......
    .......
    ..@@..@
    .@..@@.
    .......
    .@....@
    .@....@
    .@....@
    @....@.
    @...@@.
    .@@@.@.
    .......
    .......

u+016a:
Umacron:
    .......
    .......
    ..@@@@.
    .......
    .@....@
    .@....@
    .@....@
    @....@.
    @....@.
    @....@.
    .@@@@..
    .......
    .......

u+016b:
umacron:
    .......
    .......
    .......
    ..@@@@.
    .......
    .@....@
    .@....@
    .@....@
    @....@.
    @...@@.
    .@@@.@.
    .......
    .......

u+016c:
Ubreve:
    .......
    .@....@
    ..@@@@.
    .......
    .@....@
    .@....@
    .@....@
    @....@.
    @....@.
    @....@.
    .@@@@..
    .......
    .......

u+016d:
ubreve:
    .......
    .......
    .@....@
    ..@@@@.
    .......
    .@....@
    .@....@
    .@....@
    @....@.
    @...@@.
    .@@@.@.
    .......
    .......

u+016e:
Uring:
    .......
    ...@@..
    ..@..@.
    ...@@..
    .@....@
    .@....@
    .@....@
    @....@.
    @....@.
    @....@.
    .@@@@..
    .......
    .......

u+016f:
uring:
    .......
    ...@@..
    ..@..@.
    ...@@..
    .......
    .@....@
    .@....@
    .@....@
    @....@.
    @...@@.
    .@@@.@.
    .......
    .......

u+0170:
Uhungarumlaut:
    .......
    ...@..@
    ..@..@.
    .......
    .@....@
    .@....@
    .@....@
    @....@.
    @....@.
    @....@.
    .@@@@..
    .......
    .......

u+0171:
uhungarumlaut:
    .......
    .......
    ...@..@
    ..@..@.
    .......
    .@....@
    .@....@
    .@....@
    @....@.
    @...@@.
    .@@@.@.
    .......
    .......

u+0172:
Uogonek:
    .......
    .......
    .@....@
    .@....@
    .@....@
    .@....@
    .@....@
    @....@.
    @....@.
    @....@.
    .@@@@..
    ..@....
    ...@...

u+0173:
uogonek:
    .......
    .......
    .......
    .......
    .......
    .@....@
    .@....@
    .@....@
    @....@.
    @...@@.
    .@@@.@.
    ..@....
    ...@...

u+0174:
Wcircumflex:
    .......
    ...@@..
    ..@..@.
    .......
    .@....@
    .@....@
    .@.@@.@
    @.@@.@.
    @@..@@.
    @@..@@.
    @....@.
    .......
    .......

u+0175:
wcircumflex:
    .......
    .......
    ...@...
    ..@.@..
    .......
    .@...@.
    .@...@.
    .@.@.@.
    @.@.@..
    @.@.@..
    .@.@...
    .......
    .......

u+0176:
Ycircumflex:
    .......
    ...@...
    ..@.@..
    .......
    .@...@.
    .@...@.
    ..@.@..
    ...@...
    ...@...
    ..@....
    ..@....
    .......
    .......

u+0177:
ycircumflex:
    .......
    .......
    ...@@..
    ..@..@.
    .......
    .@....@
    .@....@
    @....@.
    @...@@.
    .@@@.@.
    .....@.
    @....@.
    .@@@@..

u+0178:
Ydieresis:
    .......
    .@...@.
    .@...@.
    .......
    .@...@.
    .@...@.
    ..@.@..
    ...@...
    ...@...
    ..@....
    ..@....
    .......
    .......

u+0179:
Zacute:
    .......
    ....@..
    ...@...
    .......
    .@@@@@@
    .....@.
    ....@..
    ..@@...
    .@.....
    @......
    @@@@@@.
    .......
    .......

u+017a:
zacute:
    .......
    .......
    ....@..
    ...@...
    .......
    .@@@@@@
    .....@.
    ...@@..
    ..@....
    .@.....
    @@@@@@.
    .......
    .......

u+017b:
Zdotaccent:
    .......
    ...@@..
    .......
    .@@@@@@
    ......@
    .....@.
    ...@@..
    ..@....
    .@.....
    @......
    @@@@@@.
    .......
    .......

u+017c:
zdotaccent:
    .......
    .......
    .......
    ...@@..
    .......
    .@@@@@@
    .....@.
    ...@@..
    ..@....
    .@.....
    @@@@@@.
    .......
    .......

u+017d:
Zcaron:
    .......
    ..@..@.
    ...@@..
    .......
    .@@@@@@
    .....@.
    ....@..
    ..@@...
    .@.....
    @......
    @@@@@@.
    .......
    .......

u+017e:
zcaron:
    .......
    .......
    ..@..@.
    ...@@..
    .......
    .@@@@@@
    .....@.
    ...@@..
    ..@....
    .@.....
    @@@@@@.
    .......
    .......

u+017f:
longs:
    .......
    .......
    ...@@..
    ..@..@.
    ..@....
    .@@....
    ..@....
    .@.....
    .@.....
    .@.....
    .@.....
    .......
    .......

u+018f:
uni018F:
    .......
    .......
    ..@@@@.
    .@....@
    ......@
    ......@
    @@@@@@.
    @....@.
    @....@.
    @....@.
    .@@@@..
    .......
    .......

u+0190:
uni0190:
    .......
    .......
    ..@@@@.
    .@....@
    .@.....
    .@.....
    ..@@@..
    .@.....
    @......
    @....@.
    .@@@@..
    .......
    .......

u+0191:
uni0191:
    .......
    .......
    ..@@@@@
    ..@....
    ..@....
    ..@....
    ..@@@..
    .@.....
    .@.....
    .@.....
    .@.....
    @......
    .......

u+0192:
florin:
    .......
    .......
    ....@@.
    ...@..@
    ...@...
    ...@...
    ..@@@@.
    ...@...
    ..@....
    ..@....
    @.@....
    .@.....
    .......

u+01fa:
Aringacute:
    ....@..
    ...@...
    ...@@..
    ..@..@.
    ...@@..
    ...@@..
    ..@..@.
    .@...@.
    .@@@@@.
    @....@.
    @....@.
    .......
    .......

u+01fb:
aringacute:
    ....@..
    ...@...
    ...@@..
    ..@..@.
    ...@@..
    ..@@@@.
    ......@
    .@@@@@.
    @....@.
    @...@@.
    .@@@.@.
    .......
    .......

u+01fc:
AEacute:
    ....@..
    ...@...
    .......
    ..@@@@@
    .@.@...
    .@.@...
    .@.@@@.
    .@@....
    @.@....
    @.@....
    @.@@@@.
    .......
    .......

u+01fd:
aeacute:
    .......
    .......
    .....@.
    ....@..
    .......
    ..@@.@.
    ....@.@
    .@@@@@.
    @..@...
    @..@.@.
    .@@.@..
    .......
    .......

u+01fe:
Oslashacute:
    ....@..
    ...@...
    ......@
    ..@@@@.
    .@...@@
    .@..@.@
    .@..@.@
    @.@..@.
    @.@..@.
    @@...@.
    .@@@@..
    @......
    .......

u+01ff:
oslashacute:
    .......
    .......
    ....@..
    ...@...
    ......@
    ..@@@@.
    .@...@@
    .@..@.@
    @..@.@.
    @@@..@.
    .@@@@..
    @......
    .......

u+0218:
Scommaaccent:
    .......
    .......
    ..@@@@.
    .@....@
    .@.....
    .@.....
    ..@@@..
    .....@.
    .....@.
    @....@.
    .@@@@..
    ...@...
    ..@....

u+0219:
scommaaccent:
    .......
    .......
    .......
    .......
    .......
    ..@@@@.
    .@....@
    ..@@...
    ....@..
    @....@.
    .@@@@..
    ...@...
    ..@....

u+021a:
Tcommaaccent:
    .......
    .......
    .@@@@@.
    ...@...
    ...@...
    ...@...
    ...@...
    ..@....
    ..@....
    ..@....
    ..@....
    ...@...
    ..@....

u+021b:
tcommaaccent:
    .......
    .......
    .......
    ..@....
    ..@....
    .@@@@..
    ..@....
    .@.....
    .@.....
    .@...@.
    ..@@@..
    ...@...
    ..@....

u+0259:
uni0259:
    .......
    .......
    .......
    .......
    .......
    ..@@@@.
    .@....@
    ......@
    @@@@@@.
    @....@.
    .@@@@..
    .......
    .......

u+02c4:
uni02C4:
    .......
    .......
    ...@...
    ..@.@..
    .@...@.
    .......
    .......
    .......
    .......
    .......
    .......
    .......
    .......

u+02c5:
uni02C5:
    .......
    .......
    .@...@.
    ..@.@..
    ...@...
    .......
    .......
    .......
    .......
    .......
    .......
    .......
    .......

u+02c6:
circumflex:
    .......
    ..@@...
    .@..@..
    .......
    .......
    .......
    .......
    .......
    .......
    .......
    .......
    .......
    .......

u+02c7:
caron:
    .......
    .@..@..
    ..@@...
    .......
    .......
    .......
    .......
    .......
    .......
    .......
    .......
    .......
    .......

u+02c8:
uni02C8:
    .......
    ...@...
    ...@...
    ...@...
    .......
    .......
    .......
    .......
    .......
    .......
    .......
    .......
    .......

u+02c9:
macron:
    .......
    .@@@@@.
    .......
    .......
    .......
    .......
    .......
    .......
    .......
    .......
    .......
    .......
    .......

u+02ca:
uni02CA:
    .......
    .......
    ....@..
    ...@...
    ..@....
    .......
    .......
    .......
    .......
    .......
    .......
    .......
    .......

u+02cb:
uni02CB:
    .......
    .......
    ..@....
    ...@...
    ....@..
    .......
    .......
    .......
    .......
    .......
    .......
    .......
    .......

u+02d8:
breve:
    .......
    @....@.
    .@@@@..
    .......
    .......
    .......
    .......
    .......
    .......
    .......
    .......
    .......
    .......

u+02d9:
dotaccent:
    ...@...
    ...@...
    .......
    .......
    .......
    .......
    .......
    .......
    .......
    .......
    .......
    .......
    .......

u+02da:
ring:
    .......
    ..@@...
    .@..@..
    ..@@...
    .......
    .......
    .......
    .......
    .......
    .......
    .......
    .......
    .......

u+02db:
ogonek:
    .......
    .......
    .......
    .......
    .......
    .......
    .......
    .......
    .......
    .......
    .......
    ..@....
    ...@...

u+02dc:
tilde:
    .......
    .@@..@.
    @..@@..
    .......
    .......
    .......
    .......
    .......
    .......
    .......
    .......
    .......
    .......

u+02dd:
hungarumlaut:
    .......
    ..@..@.
    .@..@..
    .......
    .......
    .......
    .......
    .......
    .......
    .......
    .......
    .......
    .......

u+0300:
gravecomb:
    ..@....
    ...@...
    .......
    .......
    .......
    .......
    .......
    .......
    .......
    .......
    .......
    .......
    .......

u+0301:
acutecomb:
    ...@...
    ..@....
    .......
    .......
    .......
    .......
    .......
    .......
    .......
    .......
    .......
    .......
    .......

u+0302:
uni0302:
    ...@...
    ..@.@..
    .......
    .......
    .......
    .......
    .......
    .......
    .......
    .......
    .......
    .......
    .......

u+0303:
tildecomb:
    ..@.@..
    .@.@...
    .......
    .......
    .......
    .......
    .......
    .......
    .......
    .......
    .......
    .......
    .......

u+0304:
uni0304:
    .......
    .@@@@..
    .......
    .......
    .......
    .......
    .......
    .......
    .......
    .......
    .......
    .......
    .......

u+0305:
uni0305:
    .......
    @@@@@@.
    .......
    .......
    .......
    .......
    .......
    .......
    .......
    .......
    .......
    .......
    .......

u+0306:
uni0306:
    .@...@.
    ..@@@..
    .......
    .......
    .......
    .......
    .......
    .......
    .......
    .......
    .......
    .......
    .......

u+0307:
uni0307:
    ...@...
    ...@...
    .......
    .......
    .......
    .......
    .......
    .......
    .......
    .......
    .......
    .......
    .......

u+0308:
uni0308:
    ..@.@..
    ..@.@..
    .......
    .......
    .......
    .......
    .......
    .......
    .......
    .......
    .......
    .......
    .......

u+0309:
hookabovecomb:
    ..@@...
    ....@..
    ...@...
    .......
    .......
    .......
    .......
    .......
    .......
    .......
    .......
    .......
    .......

u+030a:
uni030A:
    ...@...
    ..@.@..
    ...@...
    .......
    .......
    .......
    .......
    .......
    .......
    .......
    .......
    .......
    .......

u+030b:
uni030B:
    ..@..@.
    .@..@..
    .......
    .......
    .......
    .......
    .......
    .......
    .......
    .......
    .......
    .......
    .......

u+030c:
uni030C:
    ..@.@..
    ...@...
    .......
    .......
    .......
    .......
    .......
    .......
    .......
    .......
    .......
    .......
    .......

u+030d:
uni030D:
    ...@...
    ...@...
    ...@...
    .......
    .......
    .......
    .......
    .......
    .......
    .......
    .......
    .......
    .......

u+030e:
uni030E:
    ..@.@..
    ..@.@..
    ..@.@..
    .......
    .......
    .......
    .......
    .......
    .......
    .......
    .......
    .......
    .......

u+030f:
uni030F:
    .@..@..
    ..@..@.
    .......
    .......
    .......
    .......
    .......
    .......
    .......
    .......
    .......
    .......
    .......

u+0310:
uni0310:
    ...@...
    .@...@.
    ..@@@..
    .......
    .......
    .......
    .......
    .......
    .......
    .......
    .......
    .......
    .......

u+0311:
uni0311:
    ..@@@..
    .@...@.
    .......
    .......
    .......
    .......
    .......
    .......
    .......
    .......
    .......
    .......
    .......

u+0323:
dotbelowcomb:
    .......
    .......
    .......
    .......
    .......
    .......
    .......
    .......
    .......
    .......
    .......
    .......
    ...@...

u+0324:
uni0324:
    .......
    .......
    .......
    .......
    .......
    .......
    .......
    .......
    .......
    .......
    .......
    .......
    ..@.@..

u+0340:
uni0340:
    ..@....
    ...@...
    .......
    .......
    .......
    .......
    .......
    .......
    .......
    .......
    .......
    .......
    .......

u+0341:
uni0341:
    ...@...
    ..@....
    .......
    .......
    .......
    .......
    .......
    .......
    .......
    .......
    .......
    .......
    .......

u+0374:
uni0374:
    .......
    .......
    ...@...
    ..@....
    .......
    .......
    .......
    .......
    .......
    .......
    .......
    .......
    .......

u+0375:
uni0375:
    .......
    .......
    .......
    .......
    .......
    .......
    .......
    .......
    .......
    .......
    .......
    ...@...
    ..@....

u+037a:
uni037A:
    .......
    .......
    .......
    .......
    .......
    .......
    .......
    .......
    .......
    .......
    .......
    ..@....
    ..@@...

u+037e:
uni037E:
    .......
    .......
    .......
    .......
    ....@..
    ...@@@.
    ....@..
    .......
    .......
    ..@@@..
    ..@@...
    .@.....
    .......

u+0384:
tonos:
    .......
    .......
    ...@...
    ..@....
    .......
    .......
    .......
    .......
    .......
    .......
    .......
    .......
    .......

u+0385:
dieresistonos:
    .......
    ....@..
    .@.@.@.
    .@...@.
    .......
    .......
    .......
    .......
    .......
    .......
    .......
    .......
    .......

u+0386:
Alphatonos:
    .......
    .......
    .@.@@..
    @.@..@.
    ..@..@.
    ..@..@.
    ..@..@.
    ..@@@..
    .@..@..
    .@..@..
    .@..@..
    .......
    .......

u+0387:
anoteleia:
    .......
    .......
    .......
    .......
    .......
    ..@@...
    .......
    .......
    .......
    .......
    .......
    .......
    .......

u+0388:
Epsilontonos:
    .......
    .......
    .@@@@@.
    @.@....
    ..@....
    ..@....
    ..@@@..
    .@.....
    .@.....
    .@.....
    .@@@@..
    .......
    .......

u+0389:
Etatonos:
    .......
    .......
    .@@..@.
    @.@..@.
    ..@..@.
    ..@..@.
    ..@@@..
    .@..@..
    .@..@..
    .@..@..
    .@..@..
    .......
    .......

u+038a:
Iotatonos:
    .......
    .......
    .@.@@@.
    @...@..
    ....@..
    ....@..
    ....@..
    ...@...
    ...@...
    ...@...
    ..@@@..
    .......
    .......

u+038c:
Omicrontonos:
    .......
    .......
    .@.@@..
    @.@..@.
    ..@..@.
    ..@..@.
    ..@..@.
    .@..@..
    .@..@..
    .@..@..
    ..@@...
    .......
    .......

u+038e:
Upsilontonos:
    .......
    .......
    .@.@.@.
    @..@.@.
    ...@.@.
    ....@..
    ....@..
    ....@..
    ...@...
    ...@...
    ...@...
    .......
    .......

u+038f:
Omegatonos:
    .......
    .......
    .@.@@..
    @.@..@.
    ..@..@.
    ..@..@.
    .@..@..
    .@..@..
    ..@@...
    ..@@...
    .@..@..
    .......
    .......

u+0390:
iotadieresistonos:
    .......
    ...@...
    @.@..@.
    @....@.
    .......
    ..@....
    ..@....
    .@.....
    .@.....
    .@..@..
    ..@@...
    .......
    .......

u+0391:
Alpha:
    .......
    .......
    ...@@..
    ..@..@.
    .@....@
    .@....@
    .@....@
    .@@@@@.
    @....@.
    @....@.
    @....@.
    .......
    .......

u+0392:
Beta:
    .......
    .......
    .@@@@@.
    .@....@
    .@....@
    .@....@
    .@@@@@.
    @....@.
    @....@.
    @....@.
    @@@@@..
    .......
    .......

u+0393:
Gamma:
    .......
    .......
    .@@@@@@
    .@.....
    .@.....
    .@.....
    .@.....
    @......
    @......
    @......
    @......
    .......
    .......

u+0394:
Delta:
    .......
    .......
    ...@@..
    ...@@..
    ..@.@..
    ..@.@..
    .@...@.
    .@...@.
    @....@.
    @....@.
    @@@@@@.
    .......
    .......

u+0395:
Epsilon:
    .......
    .......
    .@@@@@@
    .@.....
    .@.....
    .@.....
    .@@@@..
    @......
    @......
    @......
    @@@@@@.
    .......
    .......

u+0396:
Zeta:
    .......
    .......
    .@@@@@@
    ......@
    .....@.
    ....@..
    ...@...
    ..@....
    .@.....
    @......
    @@@@@@.
    .......
    .......

u+0397:
Eta:
    .......
    .......
    .@....@
    .@....@
    .@....@
    .@....@
    .@@@@@.
    @....@.
    @....@.
    @....@.
    @....@.
    .......
    .......

u+0398:
Theta:
    .......
    .......
    ..@@@@.
    .@....@
    .@....@
    .@....@
    .@@@@@.
    @....@.
    @....@.
    @....@.
    .@@@@..
    .......
    .......

u+0399:
Iota:
    .......
    .......
    .@@@@@.
    ...@...
    ...@...
    ...@...
    ...@...
    ..@....
    ..@....
    ..@....
    @@@@@..
    .......
    .......

u+039a:
Kappa:
    .......
    .......
    .@....@
    .@...@.
    .@..@..
    .@.@...
    .@@....
    @.@....
    @..@...
    @...@..
    @....@.
    .......
    .......

u+039b:
Lambda:
    .......
    .......
    ...@@..
    ...@@..
    ...@@..
    ..@.@..
    ..@.@..
    .@...@.
    .@...@.
    @....@.
    @....@.
    .......
    .......

u+039c:
Mu:
    .......
    .......
    .@....@
    .@@..@@
    .@@..@@
    .@.@@.@
    .@.@@.@
    @....@.
    @....@.
    @....@.
    @....@.
    .......
    .......

u+039d:
Nu:
    .......
    .......
    .@....@
    .@....@
    .@@...@
    .@.@..@
    .@..@.@
    @...@@.
    @....@.
    @....@.
    @....@.
    .......
    .......

u+039e:
Xi:
    .......
    .......
    .@@@@@@
    .......
    .......
    .......
    ..@@@@.
    .......
    .......
    .......
    @@@@@@.
    .......
    .......

u+039f:
Omicron:
    .......
    .......
    ..@@@@.
    .@....@
    .@....@
    .@....@
    .@....@
    @....@.
    @....@.
    @....@.
    .@@@@..
    .......
    .......

u+03a0:
Pi:
    .......
    .......
    @@@@@@.
    .@..@..
    .@..@..
    .@..@..
    .@..@..
    @..@...
    @..@...
    @..@...
    @..@...
    .......
    .......

u+03a1:
Rho:
    .......
    .......
    .@@@@@.
    .@....@
    .@....@
    .@....@
    .@@@@@.
    @......
    @......
    @......
    @......
    .......
    .......

u+03a3:
Sigma:
    .......
    .......
    .@@@@@@
    .@.....
    ..@....
    ...@...
    ...@...
    ..@....
    .@.....
    @......
    @@@@@@.
    .......
    .......

u+03a4:
Tau:
    .......
    .......
    .@@@@@.
    ...@...
    ...@...
    ...@...
    ...@...
    ..@....
    ..@....
    ..@....
    ..@....
    .......
    .......

u+03a5:
Upsilon:
    .......
    .......
    .@...@.
    .@...@.
    ..@.@..
    ..@.@..
    ...@...
    ...@...
    ...@...
    ..@....
    ..@....
    .......
    .......

u+03a6:
Phi:
    .......
    .......
    ...@...
    ..@@@..
    .@.@.@.
    .@.@.@.
    .@.@.@.
    @.@.@..
    @.@.@..
    .@@@...
    ..@....
    .......
    .......

u+03a7:
Chi:
    .......
    .......
    .@....@
    .@....@
    ..@..@.
    ..@..@.
    ...@@..
    ...@@..
    ..@.@..
    .@...@.
    @....@.
    .......
    .......

u+03a8:
Psi:
    .......
    .......
    .@.@.@.
    .@.@.@.
    .@.@.@.
    .@.@.@.
    @.@.@..
    @.@.@..
    .@@@...
    ..@....
    ..@....
    .......
    .......

u+03a9:
Omega:
    .......
    .......
    ..@@@@.
    .@....@
    .@....@
    .@....@
    @....@.
    @....@.
    .@..@..
    .@..@..
    @@..@@.
    .......
    .......

u+03aa:
Iotadieresis:
    .......
    .@...@.
    .@...@.
    .......
    .@@@@@.
    ...@...
    ...@...
    ..@....
    ..@....
    ..@....
    @@@@@..
    .......
    .......

u+03ab:
Upsilondieresis:
    .......
    .@...@.
    .@...@.
    .......
    .@...@.
    .@...@.
    ..@.@..
    ...@...
    ...@...
    ..@....
    ..@....
    .......
    .......

u+03ac:
alphatonos:
    .......
    .......
    .....@.
    ....@..
    .......
    ..@@@.@
    .@...@.
    @....@.
    @...@@.
    @..@.@.
    .@@..@.
    .......
    .......

u+03ad:
epsilontonos:
    .......
    .......
    .....@.
    ....@..
    .......
    ..@@@@.
    .@....@
    .@@@...
    @......
    @....@.
    .@@@@..
    .......
    .......

u+03ae:
etatonos:
    .......
    .......
    .....@.
    ....@..
    .......
    .@.@@@.
    .@@...@
    .@....@
    @....@.
    @....@.
    @....@.
    .....@.
    .....@.

u+03af:
iotatonos:
    .......
    .......
    ...@...
    ..@....
    .......
    ..@....
    ..@....
    .@.....
    .@.....
    .@..@..
    ..@@...
    .......
    .......

u+03b0:
upsilondieresistonos:
    .......
    ....@..
    .@.@..@
    .@....@
    .......
    .@....@
    .@....@
    @....@.
    @....@.
    @....@.
    .@@@@..
    .......
    .......

u+03b1:
alpha:
    .......
    .......
    .......
    .......
    .......
    ..@@@.@
    .@...@.
    @....@.
    @...@@.
    @..@.@.
    .@@..@.
    .......
    .......

u+03b2:
beta:
    .......
    .......
    ..@@@..
    .@...@.
    .@...@.
    .@@@@@.
    .@....@
    .@....@
    @....@.
    @@...@.
    @.@@@..
    @......
    @......

u+03b3:
gamma:
    .......
    .......
    .......
    .......
    .......
    .@...@.
    .@...@.
    .@..@..
    .@.@...
    ..@....
    ..@....
    ..@....
    ..@....

u+03b4:
delta:
    .......
    .......
    ..@@@@.
    .@....@
    ..@....
    ..@@@@.
    .@....@
    .@....@
    @....@.
    @....@.
    .@@@@..
    .......
    .......

u+03b5:
epsilon:
    .......
    .......
    .......
    .......
    .......
    ..@@@@.
    .@....@
    .@@@...
    @......
    @....@.
    .@@@@..
    .......
    .......

u+03b6:
zeta:
    .......
    .......
    .@@@@@@
    ...@...
    ..@....
    ..@....
    .@.....
    @......
    @......
    @......
    .@@@@..
    .....@.
    ...@@..

u+03b7:
eta:
    .......
    .......
    .......
    .......
    .......
    .@.@@@.
    .@@...@
    .@....@
    @....@.
    @....@.
    @....@.
    .....@.
    .....@.

u+03b8:
theta:
    .......
    .......
    ..@@@..
    .@...@.
    .@...@.
    .@...@.
    .@@@@..
    @...@..
    @...@..
    @...@..
    .@@@...
    .......
    .......

u+03b9:
iota:
    .......
    .......
    .......
    .......
    .......
    ..@....
    ..@....
    .@.....
    .@.....
    .@..@..
    ..@@...
    .......
    .......

u+03ba:
kappa:
    .......
    .......
    .......
    .......
    .......
    .@...@.
    .@..@..
    .@.@...
    .@@....
    @..@...
    @...@..
    .......
    .......

u+03bb:
lambda:
    .......
    .......
    ..@@@@.
    .@....@
    ......@
    ..@@@.@
    .@...@@
    .@....@
    @....@.
    @....@.
    @....@.
    .......
    .......

u+03bc:
mu:
    .......
    .......
    .......
    .......
    .......
    .@....@
    .@....@
    .@....@
    @....@.
    @@..@@.
    @.@@.@.
    @......
    @......

u+03bd:
nu:
    .......
    .......
    .......
    .......
    .......
    .@...@.
    .@...@.
    .@..@..
    .@.@...
    .@.@...
    ..@....
    .......
    .......

u+03be:
xi:
    .......
    .......
    .@@@@@@
    ...@...
    ..@....
    ..@....
    ...@@@.
    .@@....
    @......
    @......
    .@@@@..
    .....@.
    ...@@..

u+03bf:
omicron:
    .......
    .......
    .......
    .......
    .......
    ..@@@@.
    .@....@
    .@....@
    @....@.
    @....@.
    .@@@@..
    .......
    .......

u+03c0:
pi:
    .......
    .......
    .......
    .......
    .......
    @@@@@@.
    .@..@..
    .@..@..
    @..@...
    @..@...
    @..@...
    .......
    .......

u+03c1:
rho:
    .......
    .......
    .......
    .......
    .......
    ..@@@@.
    .@....@
    .@....@
    @....@.
    @@...@.
    @.@@@..
    @......
    @......

u+03c2:
sigma1:
    .......
    .......
    .......
    .......
    .......
    ..@@@@.
    .@....@
    @......
    @......
    @......
    .@@@@..
    .....@.
    ...@@..

u+03c3:
sigma:
    .......
    .......
    .......
    .......
    .......
    ..@@@@@
    .@..@..
    .@...@.
    @....@.
    @....@.
    .@@@@..
    .......
    .......

u+03c4:
tau:
    .......
    .......
    .......
    .......
    .......
    .@@@@@.
    ...@...
    ..@....
    ..@....
    ..@.@..
    ...@...
    .......
    .......

u+03c5:
upsilon:
    .......
    .......
    .......
    .......
    .......
    .@....@
    .@....@
    .@....@
    @....@.
    @....@.
    .@@@@..
    .......
    .......

u+03c6:
phi:
    .......
    .......
    .......
    .......
    .......
    ..@.@..
    .@.@.@.
    .@.@.@.
    @.@.@..
    @.@.@..
    .@@@...
    ..@....
    ..@....

u+03c7:
chi:
    .......
    .......
    .......
    .......
    .......
    @....@.
    .@..@..
    .@.@...
    ..@....
    ..@....
    .@.@...
    .@.@...
    @...@..

u+03c8:
psi:
    .......
    .......
    .......
    .......
    .......
    .@.@.@.
    .@.@.@.
    .@.@.@.
    @.@.@..
    @.@.@..
    .@@@...
    ..@....
    ..@....

u+03c9:
omega:
    .......
    .......
    .......
    .......
    .......
    .@...@.
    .@.@.@.
    .@.@.@.
    @.@.@..
    @.@.@..
    .@.@...
    .......
    .......

u+03ca:
iotadieresis:
    .......
    .......
    @....@.
    @....@.
    .......
    ..@....
    ..@....
    .@.....
    .@.....
    .@..@..
    ..@@...
    .......
    .......

u+03cb:
upsilondieresis:
    .......
    .......
    .@....@
    .@....@
    .......
    .@....@
    .@....@
    .@....@
    @....@.
    @....@.
    .@@@@..
    .......
    .......

u+03cc:
omicrontonos:
    .......
    .......
    .....@.
    ....@..
    .......
    ..@@@@.
    .@....@
    .@....@
    @....@.
    @....@.
    .@@@@..
    .......
    .......

u+03cd:
upsilontonos:
    .......
    .......
    .....@.
    ....@..
    .......
    .@....@
    .@....@
    .@....@
    @....@.
    @....@.
    .@@@@..
    .......
    .......

u+03ce:
omegatonos:
    .......
    .......
    ....@..
    ...@...
    .......
    .@...@.
    .@.@.@.
    .@.@.@.
    @.@.@..
    @.@.@..
    .@.@...
    .......
    .......

u+03d0:
uni03D0:
    .......
    .......
    ...@@..
    ..@..@.
    .@...@.
    .@.@@..
    .@@..@.
    @....@.
    @....@.
    .@..@..
    ..@@...
    .......
    .......

u+03d1:
theta1:
    .......
    .......
    ..@@@..
    .@...@.
    .@...@.
    ..@@@@@
    .....@.
    .@...@.
    @...@..
    @...@..
    .@@@...
    .......
    .......

u+03d2:
Upsilon1:
    .......
    .......
    ..@.@..
    .@.@.@.
    ...@...
    ...@...
    ...@...
    ..@....
    ..@....
    ..@....
    ..@....
    .......
    .......

u+03d3:
uni03D3:
    .......
    .......
    ..@.@..
    .@.@.@.
    ...@...
    .@.@...
    .@.@...
    ..@....
    ..@....
    ..@....
    ..@....
    .......
    .......

u+03d4:
uni03D4:
    .......
    .@...@.
    .@...@.
    .......
    ..@.@..
    .@.@.@.
    ...@...
    ...@...
    ..@....
    ..@....
    ..@....
    .......
    .......

u+03d5:
phi1:
    .......
    .......
    .......
    ...@...
    ...@...
    ..@@@..
    .@.@.@.
    .@.@.@.
    @.@.@..
    @.@.@..
    .@@@...
    ..@....
    ..@....

u+03d6:
omega1:
    .......
    .......
    .......
    .......
    .......
    .@@@@@.
    .@...@.
    .@.@.@.
    @.@.@..
    @.@.@..
    .@.@...
    .......
    .......

u+03d7:
uni03D7:
    .......
    .......
    .....@.
    ....@..
    .......
    .@....@
    .@...@.
    .@..@..
    .@@@...
    .@..@..
    @....@.
    .....@.
    ..@@@..

u+03da:
uni03DA:
    .......
    .......
    ...@@@.
    ..@...@
    .@.....
    .@.....
    @......
    @......
    @......
    .@@@@..
    .....@.
    ....@..
    .......

u+03db:
uni03DB:
    .......
    .......
    .......
    .......
    ......@
    ..@@@@.
    .@.....
    @......
    @......
    @......
    .@@@@..
    .....@.
    ...@@..

u+03dc:
uni03DC:
    .......
    .......
    .@@@@@@
    .@.....
    .@.....
    .@.....
    .@@@@..
    @......
    @......
    @......
    @......
    .......
    .......

u+03dd:
uni03DD:
    .......
    .......
    .......
    .......
    .......
    .@@@@@.
    .@.....
    @......
    @@@@...
    @......
    @......
    @......
    @......

u+03de:
uni03DE:
    .......
    .......
    .@.....
    .@....@
    .@...@@
    .@..@.@
    @..@..@
    @.@..@.
    @@...@.
    @....@.
    .....@.
    .......
    .......

u+03df:
uni03DF:
    .......
    .......
    ...@...
    ...@...
    ..@....
    ..@....
    .@.....
    @@@@@@.
    .....@.
    ....@..
    ....@..
    ...@...
    ...@...

u+03f0:
uni03F0:
    .......
    .......
    .......
    .......
    .......
    .@....@
    .@...@.
    .@..@..
    .@@@...
    .@..@..
    @....@.
    .......
    .......

u+03f1:
uni03F1:
    .......
    .......
    .......
    .......
    .......
    ..@@@@.
    .@....@
    .@....@
    @....@.
    @@...@.
    @.@@@..
    @......
    .@@@@..

u+03f2:
uni03F2:
    .......
    .......
    .......
    .......
    .......
    ..@@@@.
    .@....@
    @......
    @......
    @....@.
    .@@@@..
    .......
    .......

u+03f3:
uni03F3:
    .......
    .......
    .......
    .....@.
    .......
    ....@@.
    .....@.
    .....@.
    ....@..
    ....@..
    @...@..
    @...@..
    .@@@...

u+03f4:
uni03F4:
    .......
    .......
    ..@@@@.
    .@....@
    .@....@
    .@....@
    .@@@@@.
    @....@.
    @....@.
    @....@.
    .@@@@..
    .......
    .......

u+03f5:
uni03F5:
    .......
    .......
    .......
    .......
    .......
    ..@@@@.
    .@.....
    @@@@...
    @......
    @......
    .@@@@..
    .......
    .......

u+0400:
uni0400:
    .......
    ...@...
    ....@..
    .......
    .@@@@@@
    .@.....
    .@.....
    .@@@...
    @......
    @......
    @@@@@@.
    .......
    .......

u+0401:
afii10023:
    .......
    ..@..@.
    ..@..@.
    .......
    .@@@@@@
    .@.....
    .@.....
    .@@@...
    @......
    @......
    @@@@@@.
    .......
    .......

u+0402:
afii10051:
    .......
    .......
    @@@@@..
    ..@....
    ..@....
    ..@....
    ..@@@..
    ..@..@.
    ..@..@.
    .@..@..
    .@..@..
    ....@..
    ..@@...

u+0403:
afii10052:
    ....@..
    ...@...
    .......
    .@@@@@@
    .@.....
    .@.....
    .@.....
    @......
    @......
    @......
    @......
    .......
    .......

u+0404:
afii10053:
    .......
    .......
    ...@@@.
    ..@...@
    .@.....
    .@.....
    .@@@@..
    @......
    @......
    .@...@.
    ..@@@..
    .......
    .......

u+0405:
afii10054:
    .......
    .......
    ..@@@@.
    .@....@
    .@.....
    .@.....
    ..@@@..
    .....@.
    .....@.
    @....@.
    .@@@@..
    .......
    .......

u+0406:
afii10055:
    .......
    .......
    .@@@@@.
    ...@...
    ...@...
    ...@...
    ...@...
    ..@....
    ..@....
    ..@....
    @@@@@..
    .......
    .......

u+0407:
afii10056:
    .......
    .@...@.
    .@...@.
    .......
    .@@@@@.
    ...@...
    ...@...
    ..@....
    ..@....
    ..@....
    @@@@@..
    .......
    .......

u+0408:
afii10057:
    .......
    .......
    ....@@@
    .....@.
    .....@.
    .....@.
    .....@.
    ....@..
    ....@..
    @...@..
    .@@@...
    .......
    .......

u+0409:
afii10058:
    .......
    .......
    ..@@@..
    ..@.@..
    ..@.@..
    ..@.@..
    ..@.@@.
    .@.@.@.
    .@.@.@.
    .@.@.@.
    @..@@..
    .......
    .......

u+040a:
afii10059:
    .......
    .......
    .@..@..
    .@..@..
    .@..@..
    .@..@..
    .@@@@@.
    @..@.@.
    @..@.@.
    @..@.@.
    @..@@..
    .......
    .......

u+040b:
afii10060:
    .......
    .......
    @@@@@..
    ..@....
    ..@....
    ..@....
    ..@@@..
    ..@..@.
    ..@..@.
    .@..@..
    .@..@..
    .......
    .......

u+040c:
afii10061:
    ....@..
    ...@...
    .@....@
    .@...@.
    .@..@..
    .@.@...
    .@@....
    @.@....
    @..@...
    @...@..
    @....@.
    .......
    .......

u+040d:
uni040D:
    ...@...
    ....@..
    .@....@
    .@....@
    .@...@@
    .@..@.@
    .@.@..@
    @.@..@.
    @@...@.
    @....@.
    @....@.
    .......
    .......

u+040e:
afii10062:
    ..@..@.
    ...@@..
    .......
    .@....@
    .@....@
    .@....@
    ..@@@@.
    .....@.
    .....@.
    @....@.
    .@@@@..
    .......
    .......

u+040f:
afii10145:
    .......
    .......
    .@...@.
    .@...@.
    .@...@.
    .@...@.
    .@...@.
    @...@..
    @...@..
    @...@..
    @@@@@..
    ..@....
    ..@....

u+0410:
afii10017:
    .......
    .......
    ...@@..
    ..@..@.
    .@....@
    .@....@
    .@....@
    .@@@@@.
    @....@.
    @....@.
    @....@.
    .......
    .......

u+0411:
afii10018:
    .......
    .......
    .@@@@@.
    .@.....
    .@.....
    .@.....
    .@@@@..
    @....@.
    @....@.
    @....@.
    @@@@@..
    .......
    .......

u+0412:
afii10019:
    .......
    .......
    .@@@@@.
    .@....@
    .@....@
    .@....@
    .@@@@@.
    @....@.
    @....@.
    @....@.
    @@@@@..
    .......
    .......

u+0413:
afii10020:
    .......
    .......
    .@@@@@@
    .@.....
    .@.....
    .@.....
    .@.....
    @......
    @......
    @......
    @......
    .......
    .......

u+0414:
afii10021:
    .......
    .......
    ...@@@.
    ...@.@.
    ...@.@.
    ..@..@.
    ..@..@.
    .@..@..
    .@..@..
    .@..@..
    @@@@@@.
    @....@.
    .......

u+0415:
afii10022:
    .......
    .......
    .@@@@@@
    .@.....
    .@.....
    .@.....
    .@@@@..
    @......
    @......
    @......
    @@@@@@.
    .......
    .......

u+0416:
afii10024:
    .......
    .......
    .@.@.@.
    .@.@.@.
    .@.@.@.
    .@.@.@.
    .@@@@..
    @.@.@..
    @.@.@..
    @.@.@..
    @.@.@..
    .......
    .......

u+0417:
afii10025:
    .......
    .......
    ..@@@@.
    .@....@
    ......@
    ......@
    ...@@@.
    .....@.
    .....@.
    @....@.
    .@@@@..
    .......
    .......

u+0418:
afii10026:
    .......
    .......
    .@....@
    .@....@
    .@...@@
    .@..@.@
    .@.@..@
    @.@..@.
    @@...@.
    @....@.
    @....@.
    .......
    .......

u+0419:
afii10027:
    ..@..@.
    ...@@..
    .@....@
    .@....@
    .@...@@
    .@..@.@
    .@.@..@
    @.@..@.
    @@...@.
    @....@.
    @....@.
    .......
    .......

u+041a:
afii10028:
    .......
    .......
    .@....@
    .@...@.
    .@..@..
    .@.@...
    .@@....
    @.@....
    @..@...
    @...@..
    @....@.
    .......
    .......

u+041b:
afii10029:
    .......
    .......
    ..@@@@@
    ..@...@
    ..@...@
    ..@...@
    ..@...@
    .@...@.
    .@...@.
    .@...@.
    @....@.
    .......
    .......

u+041c:
afii10030:
    .......
    .......
    .@....@
    .@@..@@
    .@@..@@
    .@.@@.@
    .@.@@.@
    @....@.
    @....@.
    @....@.
    @....@.
    .......
    .......

u+041d:
afii10031:
    .......
    .......
    .@....@
    .@....@
    .@....@
    .@....@
    .@@@@@.
    @....@.
    @....@.
    @....@.
    @....@.
    .......
    .......

u+041e:
afii10032:
    .......
    .......
    ..@@@@.
    .@....@
    .@....@
    .@....@
    .@....@
    @....@.
    @....@.
    @....@.
    .@@@@..
    .......
    .......

u+041f:
afii10033:
    .......
    .......
    .@@@@@@
    .@....@
    .@....@
    .@....@
    .@....@
    @....@.
    @....@.
    @....@.
    @....@.
    .......
    .......

u+0420:
afii10034:
    .......
    .......
    .@@@@@.
    .@....@
    .@....@
    .@....@
    .@@@@@.
    @......
    @......
    @......
    @......
    .......
    .......

u+0421:
afii10035:
    .......
    .......
    ..@@@@.
    .@....@
    .@.....
    .@.....
    .@.....
    @......
    @......
    @....@.
    .@@@@..
    .......
    .......

u+0422:
afii10036:
    .......
    .......
    .@@@@@.
    ...@...
    ...@...
    ...@...
    ...@...
    ..@....
    ..@....
    ..@....
    ..@....
    .......
    .......

u+0423:
afii10037:
    .......
    .......
    .@....@
    .@....@
    .@....@
    .@....@
    ..@@@@.
    .....@.
    .....@.
    @....@.
    .@@@@..
    .......
    .......

u+0424:
afii10038:
    .......
    ...@...
    ..@@@..
    .@.@.@.
    .@.@.@.
    .@.@.@.
    .@.@.@.
    @.@.@..
    @.@.@..
    @.@.@..
    .@@@...
    ..@....
    .......

u+0425:
afii10039:
    .......
    .......
    .@....@
    .@....@
    ..@..@.
    ..@.@..
    ...@...
    ..@.@..
    .@..@..
    @....@.
    @....@.
    .......
    .......

u+0426:
afii10040:
    .......
    .......
    .@...@.
    .@...@.
    .@...@.
    .@...@.
    .@...@.
    @...@..
    @...@..
    @...@..
    @@@@@@.
    .....@.
    .....@.

u+0427:
afii10041:
    .......
    .......
    .@....@
    .@....@
    @....@.
    @....@.
    .@@@@@.
    .....@.
    ....@..
    ....@..
    ....@..
    .......
    .......

u+0428:
afii10042:
    .......
    .......
    .@.@.@.
    .@.@.@.
    .@.@.@.
    .@.@.@.
    .@.@.@.
    @.@.@..
    @.@.@..
    @.@.@..
    @@@@@..
    .......
    .......

u+0429:
afii10043:
    .......
    .......
    .@.@.@.
    .@.@.@.
    .@.@.@.
    .@.@.@.
    .@.@.@.
    @.@.@..
    @.@.@..
    @.@.@..
    @@@@@@.
    .....@.
    .....@.

u+042a:
afii10044:
    .......
    .......
    .@@@...
    ...@...
    ...@...
    ...@...
    ...@@..
    ..@..@.
    ..@..@.
    ..@..@.
    ..@@@..
    .......
    .......

u+042b:
afii10045:
    .......
    .......
    .@....@
    .@....@
    .@....@
    .@....@
    .@@@..@
    @..@.@.
    @..@.@.
    @..@.@.
    @@@..@.
    .......
    .......

u+042c:
afii10046:
    .......
    .......
    ..@....
    ..@....
    ..@....
    ..@....
    ..@@@..
    .@...@.
    .@...@.
    .@...@.
    .@@@@..
    .......
    .......

u+042d:
afii10047:
    .......
    .......
    ..@@@..
    .@...@.
    ......@
    ......@
    ...@@@.
    .....@.
    .....@.
    @...@..
    .@@@...
    .......
    .......

u+042e:
afii10048:
    .......
    .......
    .@..@@.
    .@.@..@
    .@.@..@
    .@.@..@
    .@@@..@
    @.@..@.
    @.@..@.
    @.@..@.
    @..@@..
    .......
    .......

u+042f:
afii10049:
    .......
    .......
    ..@@@@@
    .@....@
    .@....@
    .@....@
    ..@@@@.
    ...@.@.
    ..@..@.
    .@...@.
    @....@.
    .......
    .......

u+0430:
afii10065:
    .......
    .......
    .......
    .......
    .......
    ..@@@@.
    ......@
    .@@@@@.
    @....@.
    @...@@.
    .@@@.@.
    .......
    .......

u+0431:
afii10066:
    .......
    .......
    ......@
    ..@@@@.
    .@.....
    .@.@@@.
    .@@...@
    .@....@
    @....@.
    @....@.
    .@@@@..
    .......
    .......

u+0432:
afii10067:
    .......
    .......
    .......
    .......
    .......
    .@@@@@.
    .@....@
    .@@@@@.
    @....@.
    @....@.
    @@@@@..
    .......
    .......

u+0433:
afii10068:
    .......
    .......
    .......
    .......
    .......
    .@@@@@@
    .@.....
    .@.....
    @......
    @......
    @......
    .......
    .......

u+0434:
afii10069:
    .......
    .......
    .......
    .......
    .......
    ...@@@.
    ..@..@.
    ..@..@.
    .@..@..
    .@..@..
    @@@@@@.
    @....@.
    .......

u+0435:
afii10070:
    .......
    .......
    .......
    .......
    .......
    ..@@@@.
    .@....@
    .@@@@@.
    @......
    @....@.
    .@@@@..
    .......
    .......

u+0436:
afii10072:
    .......
    .......
    .......
    .......
    .......
    .@.@.@.
    .@.@.@.
    .@@@@..
    @.@.@..
    @.@.@..
    @.@.@..
    .......
    .......

u+0437:
afii10073:
    .......
    .......
    .......
    .......
    .......
    ..@@@@.
    .@....@
    ..@@@..
    .....@.
    @....@.
    .@@@@..
    .......
    .......

u+0438:
afii10074:
    .......
    .......
    .......
    .......
    .......
    .@....@
    .@...@@
    .@..@.@
    @.@@.@.
    @@...@.
    @....@.
    .......
    .......

u+0439:
afii10075:
    .......
    .......
    ..@..@.
    ...@@..
    .......
    .@....@
    .@...@@
    .@..@.@
    @.@@.@.
    @@...@.
    @....@.
    .......
    .......

u+043a:
afii10076:
    .......
    .......
    .......
    .......
    .......
    .@....@
    .@...@.
    .@@@@..
    @...@..
    @....@.
    @....@.
    .......
    .......

u+043b:
afii10077:
    .......
    .......
    .......
    .......
    .......
    ...@@@@
    ..@...@
    ..@...@
    .@...@.
    .@...@.
    @....@.
    .......
    .......

u+043c:
afii10078:
    .......
    .......
    .......
    .......
    .......
    .@...@.
    .@@.@@.
    .@.@.@.
    @...@..
    @...@..
    @...@..
    .......
    .......

u+043d:
afii10079:
    .......
    .......
    .......
    .......
    .......
    .@....@
    .@....@
    .@@@@@.
    @....@.
    @....@.
    @....@.
    .......
    .......

u+043e:
afii10080:
    .......
    .......
    .......
    .......
    .......
    ..@@@@.
    .@....@
    .@....@
    @....@.
    @....@.
    .@@@@..
    .......
    .......

u+043f:
afii10081:
    .......
    .......
    .......
    .......
    .......
    .@@@@@@
    .@....@
    .@....@
    @....@.
    @....@.
    @....@.
    .......
    .......

u+0440:
afii10082:
    .......
    .......
    .......
    .......
    .......
    .@.@@@.
    .@@...@
    .@....@
    @....@.
    @@...@.
    @.@@@..
    @......
    @......

u+0441:
afii10083:
    .......
    .......
    .......
    .......
    .......
    ..@@@@.
    .@....@
    @......
    @......
    @....@.
    .@@@@..
    .......
    .......

u+0442:
afii10084:
    .......
    .......
    .......
    .......
    .......
    .@@@@@.
    ...@...
    ...@...
    ..@....
    ..@....
    ..@....
    .......
    .......

u+0443:
afii10085:
    .......
    .......
    .......
    .......
    .......
    .@....@
    .@....@
    @....@.
    @...@@.
    .@@@.@.
    .....@.
    @....@.
    .@@@@..

u+0444:
afii10086:
    .......
    .......
    .......
    ...@...
    ...@...
    ..@@@..
    .@.@.@.
    .@.@.@.
    @.@.@..
    @.@.@..
    .@@@...
    ..@....
    ..@....

u+0445:
afii10087:
    .......
    .......
    .......
    .......
    .......
    .@....@
    ..@..@.
    ...@@..
    ..@@...
    .@..@..
    @....@.
    .......
    .......

u+0446:
afii10088:
    .......
    .......
    .......
    .......
    .......
    .@...@.
    .@...@.
    .@...@.
    @...@..
    @...@..
    @@@@@@.
    .....@.
    .....@.

u+0447:
afii10089:
    .......
    .......
    .......
    .......
    .......
    .@....@
    .@....@
    @....@.
    .@@@@@.
    .....@.
    .....@.
    .......
    .......

u+0448:
afii10090:
    .......
    .......
    .......
    .......
    .......
    .@.@.@.
    .@.@.@.
    .@.@.@.
    @.@.@..
    @.@.@..
    @@@@@..
    .......
    .......

u+0449:
afii10091:
    .......
    .......
    .......
    .......
    .......
    .@.@.@.
    .@.@.@.
    .@.@.@.
    @.@.@..
    @.@.@..
    @@@@@@.
    .....@.
    .....@.

u+044a:
afii10092:
    .......
    .......
    .......
    .......
    .......
    .@@@...
    ...@...
    ...@@..
    ..@..@.
    ..@..@.
    ..@@@..
    .......
    .......

u+044b:
afii10093:
    .......
    .......
    .......
    .......
    .......
    .@....@
    .@....@
    .@@..@.
    @..@.@.
    @..@.@.
    @@@..@.
    .......
    .......

u+044c:
afii10094:
    .......
    .......
    .......
    .......
    .......
    ..@....
    ..@....
    ..@@@..
    .@...@.
    .@...@.
    .@@@@..
    .......
    .......

u+044d:
afii10095:
    .......
    .......
    .......
    .......
    .......
    ..@@@@.
    .@....@
    ...@@@.
    .....@.
    @....@.
    .@@@@..
    .......
    .......

u+044e:
afii10096:
    .......
    .......
    .......
    .......
    .......
    .@..@@.
    .@.@..@
    .@@@..@
    @.@..@.
    @.@..@.
    @..@@..
    .......
    .......

u+044f:
afii10097:
    .......
    .......
    .......
    .......
    .......
    ..@@@@@
    .@....@
    .@....@
    ..@@@@.
    .@...@.
    @....@.
    .......
    .......

u+0450:
uni0450:
    .......
    .......
    ...@...
    ....@..
    .......
    ..@@@@.
    .@....@
    .@@@@@.
    @......
    @....@.
    .@@@@..
    .......
    .......

u+0451:
afii10071:
    .......
    .......
    ..@..@.
    ..@..@.
    .......
    ..@@@@.
    .@....@
    .@@@@@.
    @......
    @....@.
    .@@@@..
    .......
    .......

u+0452:
afii10099:
    .......
    .......
    .......
    .@.....
    .@.....
    @@@@...
    .@.....
    .@@@@..
    .@...@.
    @...@..
    @...@..
    ....@..
    ..@@...

u+0453:
afii10100:
    .......
    .......
    ....@..
    ...@...
    .......
    .@@@@@@
    .@.....
    .@.....
    @......
    @......
    @......
    .......
    .......

u+0454:
afii10101:
    .......
    .......
    .......
    .......
    .......
    ..@@@@.
    .@....@
    .@@....
    @......
    @....@.
    .@@@@..
    .......
    .......

u+0455:
afii10102:
    .......
    .......
    .......
    .......
    .......
    ..@@@@.
    .@....@
    ..@....
    ...@@..
    @....@.
    .@@@@..
    .......
    .......

u+0456:
afii10103:
    .......
    .......
    .......
    ....@..
    .......
    ...@@..
    ....@..
    ....@..
    ...@...
    ...@...
    .@@@@@.
    .......
    .......

u+0457:
afii10104:
    .......
    .......
    ..@..@.
    ..@..@.
    .......
    ...@@..
    ....@..
    ....@..
    ...@...
    ...@...
    .@@@@@.
    .......
    .......

u+0458:
afii10105:
    .......
    .......
    .......
    .....@.
    .......
    ....@@.
    .....@.
    .....@.
    ....@..
    ....@..
    @...@..
    @...@..
    .@@@...

u+0459:
afii10106:
    .......
    .......
    .......
    .......
    .......
    ..@@@..
    ..@.@..
    .@..@@.
    .@.@..@
    .@.@..@
    @..@@@.
    .......
    .......

u+045a:
afii10107:
    .......
    .......
    .......
    .......
    .......
    .@..@..
    .@..@..
    .@@@@..
    @..@.@.
    @..@.@.
    @..@@..
    .......
    .......

u+045b:
afii10108:
    .......
    .......
    .......
    .@.....
    .@.....
    @@@@...
    .@.....
    .@@@@..
    .@...@.
    @...@..
    @...@..
    .......
    .......

u+045c:
afii10109:
    .......
    .......
    ....@..
    ...@...
    .......
    .@....@
    .@..@@.
    .@@@...
    @...@..
    @....@.
    @....@.
    .......
    .......

u+045d:
uni045D:
    .......
    .......
    ...@...
    ....@..
    .......
    .@....@
    .@...@@
    .@..@.@
    @.@@.@.
    @@...@.
    @....@.
    .......
    .......

u+045e:
afii10110:
    .......
    .......
    ..@..@.
    ...@@..
    .......
    .@....@
    .@....@
    @....@.
    @...@@.
    .@@@.@.
    .....@.
    @....@.
    .@@@@..

u+045f:
afii10193:
    .......
    .......
    .......
    .......
    .......
    .@...@.
    .@...@.
    .@...@.
    @...@..
    @...@..
    @@@@@..
    ..@....
    ..@....

u+0460:
uni0460:
    .......
    .......
    ..@..@.
    .@....@
    .@....@
    .@....@
    .@....@
    @....@.
    @....@.
    @.@@.@.
    .@..@..
    .......
    .......

u+0461:
uni0461:
    .......
    .......
    .......
    .......
    .......
    ..@.@..
    .@...@.
    .@.@.@.
    @.@.@..
    @.@.@..
    .@.@...
    .......
    .......

u+0462:
afii10146:
    .......
    .......
    ..@....
    .@@@@..
    ..@....
    ..@....
    ..@@@..
    .@...@.
    .@...@.
    .@...@.
    .@@@@..
    .......
    .......

u+0463:
afii10194:
    .......
    .......
    .......
    ..@....
    ..@....
    .@@@@..
    ..@....
    ..@@@..
    .@...@.
    .@...@.
    .@@@@..
    .......
    .......

u+0464:
uni0464:
    .......
    .......
    .@..@@.
    .@.@..@
    .@.@...
    .@.@...
    .@@@@@.
    @.@....
    @.@....
    @.@..@.
    @..@@..
    .......
    .......

u+0465:
uni0465:
    .......
    .......
    .......
    .......
    .......
    .@..@@.
    .@.@..@
    .@@@@..
    @.@....
    @.@..@.
    @..@@..
    .......
    .......

u+046e:
uni046E:
    ..@..@.
    ...@@..
    .......
    ..@@@@.
    .@....@
    ......@
    ...@@@.
    .....@.
    .....@.
    .....@.
    .@@@@..
    @......
    .@@@@..

u+046f:
uni046F:
    .......
    .......
    ..@..@.
    ...@@..
    .......
    ..@@@@.
    .@....@
    ..@@@..
    .....@.
    .....@.
    .@@@@..
    @......
    .@@@@..

u+0470:
uni0470:
    .......
    .......
    .@.@.@.
    .@.@.@.
    .@.@.@.
    @.@.@..
    @.@.@..
    @.@.@..
    .@@@...
    ..@....
    ..@....
    .......
    .......

u+0471:
uni0471:
    .......
    .......
    .......
    .......
    .......
    .@.@.@.
    .@.@.@.
    .@.@.@.
    @.@.@..
    @.@.@..
    .@@@...
    ..@....
    ..@....

u+0472:
afii10147:
    .......
    .......
    ..@@@@.
    .@....@
    .@....@
    .@....@
    .@@@@@.
    @....@.
    @....@.
    @....@.
    .@@@@..
    .......
    .......

u+0473:
afii10195:
    .......
    .......
    .......
    .......
    .......
    ..@@@@.
    .@....@
    .@@@@@.
    @....@.
    @....@.
    .@@@@..
    .......
    .......

u+0474:
afii10148:
    .......
    .......
    @....@.
    @...@..
    @...@..
    @..@...
    .@.@...
    .@@....
    .@.....
    .@.....
    .@.....
    .......
    .......

u+0475:
afii10196:
    .......
    .......
    .......
    .......
    .......
    .@...@.
    .@..@..
    .@.@...
    .@.@...
    .@.@...
    ..@....
    .......
    .......

u+0476:
uni0476:
    @..@...
    .@..@..
    .......
    @....@.
    @...@..
    @..@...
    @..@...
    @.@....
    @.@....
    .@.....
    .@.....
    .......
    .......

u+0477:
uni0477:
    .......
    .......
    .@..@..
    ..@..@.
    .......
    .@...@.
    .@..@..
    .@.@...
    .@.@...
    .@.@...
    ..@....
    .......
    .......

u+0478:
uni0478:
    .......
    .......
    ..@....
    .@.@...
    .@.@...
    .@.@...
    .@.@@.@
    @.@.@.@
    @.@@.@.
    @.@@.@.
    .@..@..
    ....@..
    ...@...

u+0479:
uni0479:
    .......
    .......
    .......
    .......
    .......
    .......
    ..@.@.@
    .@.@@.@
    @.@@.@.
    @.@@.@.
    .@..@..
    ....@..
    ...@...

u+047a:
uni047A:
    .......
    ...@...
    ..@@@..
    .@...@.
    .@...@.
    .@...@.
    .@...@.
    @...@..
    @...@..
    @...@..
    .@@@...
    ..@....
    .......

u+047b:
uni047B:
    .......
    .......
    .......
    .......
    ...@...
    ..@@@..
    .@...@.
    .@...@.
    @...@..
    @...@..
    .@@@...
    .......
    .......

u+047c:
uni047C:
    ....@..
    ...@...
    .......
    ..@..@.
    .@....@
    .@....@
    .@....@
    @....@.
    @....@.
    @.@@.@.
    .@..@..
    .......
    .......

u+047d:
uni047D:
    .......
    .......
    ....@..
    ...@...
    .......
    ..@.@..
    .@...@.
    .@.@.@.
    @.@.@..
    @.@.@..
    .@.@...
    .......
    .......

u+047e:
uni047E:
    .......
    ..@@@@.
    .......
    ..@..@.
    .@....@
    .@....@
    .@....@
    @....@.
    @....@.
    @.@@.@.
    .@..@..
    .......
    .......

u+047f:
uni047F:
    .......
    .......
    .......
    ..@@@..
    .......
    ..@.@..
    .@...@.
    .@.@.@.
    @.@.@..
    @.@.@..
    .@.@...
    .......
    .......

u+0490:
afii10050:
    ......@
    ......@
    .@@@@@@
    .@.....
    .@.....
    .@.....
    .@.....
    @......
    @......
    @......
    @......
    .......
    .......

u+0491:
afii10098:
    .......
    .......
    .......
    ......@
    ......@
    .@@@@@@
    .@.....
    .@.....
    @......
    @......
    @......
    .......
    .......

u+0e01:
uni0E01:
    .......
    .......
    .......
    .......
    .......
    .@@@@..
    @....@.
    .@...@.
    @...@..
    @...@..
    @...@..
    .......
    .......

u+0e02:
uni0E02:
    .......
    .......
    .......
    .......
    .......
    .@@@.@.
    .@@@.@.
    ...@.@.
    @@@.@..
    @...@..
    .@@@...
    .......
    .......

u+0e03:
uni0E03:
    .......
    .......
    .......
    .......
    .......
    @..@.@.
    @@@@.@.
    ...@.@.
    @@@.@..
    @...@..
    .@@@...
    .......
    .......

u+0e04:
uni0E04:
    .......
    .......
    .......
    .......
    .......
    ..@@@..
    .@...@.
    @@@@.@.
    @@@@.@.
    @@..@..
    .@..@..
    .......
    .......

u+0e05:
uni0E05:
    .......
    .......
    .......
    .......
    .......
    ..@.@..
    .@.@.@.
    @@@@.@.
    @@@@.@.
    @@..@..
    .@..@..
    .......
    .......

u+0e06:
uni0E06:
    .......
    .......
    .......
    .......
    .......
    .@.@.@.
    .@@@.@.
    ..@..@.
    .@..@..
    @@@.@..
    @@.@...
    .......
    .......

u+0e07:
uni0E07:
    .......
    .......
    .......
    .......
    .......
    ....@@.
    ....@@.
    @....@.
    .@..@..
    .@..@..
    ..@@...
    .......
    .......

u+0e08:
uni0E08:
    .......
    .......
    .......
    .......
    .......
    .@@@@..
    @....@.
    .@@..@.
    .@@.@..
    ..@.@..
    ..@@...
    .......
    .......

u+0e09:
uni0E09:
    .......
    .......
    .......
    .......
    .......
    .@@@@..
    .....@.
    .@@..@.
    ..@.@..
    .@.@@@.
    .@@.@@.
    .......
    .......

u+0e0a:
uni0E0A:
    .......
    .......
    .......
    .......
    .....@.
    .@@..@.
    .@@.@..
    ..@..@.
    @@..@..
    @...@..
    .@@@...
    .......
    .......

u+0e0b:
uni0E0B:
    .......
    .......
    .......
    .......
    .....@.
    @.@..@.
    @@@.@..
    .@...@.
    @...@..
    @...@..
    .@@@...
    .......
    .......

u+0e0c:
uni0E0C:
    .......
    .......
    .......
    .......
    .......
    ..@@..@
    .@..@.@
    .@@.@.@
    @..@.@.
    @.@@@@.
    @@@@.@.
    .......
    .......

u+0e0d:
uni0E0D:
    .......
    .......
    .......
    .......
    .......
    ..@@..@
    .@..@.@
    .@@.@.@
    @..@@@.
    @@.@...
    @@.@@@.
    .......
    .......

u+0e0e:
uni0E0E:
    .......
    .......
    .......
    .......
    .......
    ..@@@..
    .@...@.
    ..@..@.
    .@..@..
    @@..@..
    @@.@@..
    .@@@...
    @..@...

u+0e0f:
uni0E0F:
    .......
    .......
    .......
    .......
    .......
    ..@@@..
    .@...@.
    ..@..@.
    .@..@..
    @@..@..
    @@.@@..
    @.@.@..
    .@.@...

u+0e10:
uni0E10:
    .......
    .......
    .......
    .......
    .......
    ..@@@@.
    .@.....
    ..@@...
    .@@.@..
    .@@.@..
    ...@@..
    .@.@...
    @.@@...

u+0e11:
uni0E11:
    .......
    .......
    .......
    .......
    .......
    @.@.@..
    @@@@.@.
    .@@..@.
    @@..@..
    @...@..
    @...@..
    .......
    .......

u+0e12:
uni0E12:
    .......
    .......
    .......
    .......
    .......
    .@..@.@
    .@@@@.@
    .@..@.@
    @.@@.@.
    @@@@@@.
    @@.@.@.
    .......
    .......

u+0e13:
uni0E13:
    .......
    .......
    .......
    .......
    .......
    ..@@..@
    .@..@.@
    .@@.@.@
    @..@.@.
    @@.@@@@
    @@.@.@@
    .......
    .......

u+0e14:
uni0E14:
    .......
    .......
    .......
    .......
    .......
    ..@@@..
    .@...@.
    .@@..@.
    @@@.@..
    @.@.@..
    .@..@..
    .......
    .......

u+0e15:
uni0E15:
    .......
    .......
    .......
    .......
    .......
    ..@.@..
    .@.@.@.
    .@@..@.
    @@@.@..
    @.@.@..
    .@@.@..
    .......
    .......

u+0e16:
uni0E16:
    .......
    .......
    .......
    .......
    .......
    .@@@@..
    @....@.
    .@...@.
    @...@..
    @@..@..
    @@..@..
    .......
    .......

u+0e17:
uni0E17:
    .......
    .......
    .......
    .......
    .......
    @@..@..
    @@.@.@.
    .@@..@.
    @@..@..
    @...@..
    @...@..
    .......
    .......

u+0e18:
uni0E18:
    .......
    .......
    .......
    .......
    .......
    ..@@@@.
    .@.....
    ..@@...
    .@..@..
    .@..@..
    ..@@...
    .......
    .......

u+0e19:
uni0E19:
    .......
    .......
    .......
    .......
    .......
    .@@..@.
    .@@..@.
    ..@..@.
    @@..@..
    @..@@@.
    .@@.@@.
    .......
    .......

u+0e1a:
uni0E1A:
    .......
    .......
    .......
    .......
    .......
    @@...@.
    @@...@.
    .@...@.
    @...@..
    @...@..
    .@@@...
    .......
    .......

u+0e1b:
uni0E1B:
    .......
    .......
    .......
    ......@
    ......@
    @@...@.
    @@...@.
    .@...@.
    @...@..
    @...@..
    .@@@...
    .......
    .......

u+0e1c:
uni0E1C:
    .......
    .......
    .......
    .......
    .......
    .@@..@.
    .@@..@.
    .@...@.
    @.@.@..
    @.@.@..
    .@.@...
    .......
    .......

u+0e1d:
uni0E1D:
    .......
    .......
    .......
    ......@
    ......@
    .@@..@.
    .@@..@.
    .@...@.
    @.@.@..
    @.@.@..
    .@.@...
    .......
    .......

u+0e1e:
uni0E1E:
    .......
    .......
    .......
    .......
    .......
    @@.@.@.
    @@.@.@.
    .@.@.@.
    @.@.@..
    @.@.@..
    .@.@...
    .......
    .......

u+0e1f:
uni0E1F:
    .......
    .......
    .......
    ......@
    ......@
    @@.@.@.
    @@.@.@.
    .@.@.@.
    @.@.@..
    @.@.@..
    .@.@...
    .......
    .......

u+0e20:
uni0E20:
    .......
    .......
    .......
    .......
    .......
    ..@@@..
    .@...@.
    ..@..@.
    .@..@..
    @@..@..
    @@..@..
    .......
    .......

u+0e21:
uni0E21:
    .......
    .......
    .......
    .......
    .......
    .@@..@.
    .@@..@.
    ..@..@.
    .@..@..
    @@@.@..
    @@.@...
    .......
    .......

u+0e22:
uni0E22:
    .......
    .......
    .......
    .......
    .......
    .@@..@.
    .@@..@.
    .@...@.
    .@@.@..
    @...@..
    .@@@...
    .......
    .......

u+0e23:
uni0E23:
    .......
    .......
    .......
    .......
    .......
    ..@@@@.
    .@.....
    .@@@...
    ....@..
    ..@@...
    ..@@...
    .......
    .......

u+0e24:
uni0E24:
    .......
    .......
    .......
    .......
    .......
    ..@@@..
    .@...@.
    ..@..@.
    .@..@..
    .@@.@..
    .@@.@..
    ...@...
    ...@...

u+0e25:
uni0E25:
    .......
    .......
    .......
    .......
    .......
    ..@@@..
    .@...@.
    ..@@.@.
    .@..@..
    .@@.@..
    .@@.@..
    .......
    .......

u+0e26:
uni0E26:
    .......
    .......
    .......
    .......
    .......
    ..@@@..
    .@...@.
    ..@..@.
    .@..@..
    @@..@..
    @@..@..
    ...@...
    ...@...

u+0e27:
uni0E27:
    .......
    .......
    .......
    .......
    .......
    ..@@@..
    .@...@.
    .....@.
    ....@..
    ...@@..
    ...@@..
    .......
    .......

u+0e28:
uni0E28:
    .......
    .......
    .......
    ......@
    ......@
    ..@@@@.
    .@...@.
    .@@@.@.
    @@@@.@.
    @@@.@..
    .@@.@..
    .......
    .......

u+0e29:
uni0E29:
    .......
    .......
    .......
    .......
    .......
    @@...@.
    @@...@.
    .@@..@.
    @.@@@..
    @...@..
    .@@@...
    .......
    .......

u+0e2a:
uni0E2A:
    .......
    .......
    .......
    ......@
    ......@
    .@@@@@.
    @....@.
    .@@@.@.
    @...@..
    @@..@..
    @@..@..
    .......
    .......

u+0e2b:
uni0E2B:
    .......
    .......
    .......
    .......
    .......
    @@..@@.
    @@..@@.
    .@.@@..
    @.@.@..
    @@..@..
    @...@..
    .......
    .......

u+0e2c:
uni0E2C:
    .......
    .......
    .......
    .....@.
    .....@.
    @@.@@..
    @@...@.
    .@.@.@.
    @.@.@..
    @.@.@..
    .@.@...
    .......
    .......

u+0e2d:
uni0E2D:
    .......
    .......
    .......
    .......
    .......
    .@@@@..
    @....@.
    .@@..@.
    @@@.@..
    @...@..
    .@@@...
    .......
    .......

u+0e2e:
uni0E2E:
    .......
    .......
    .......
    ......@
    ......@
    .@@@@@.
    @@@@.@.
    .@@..@.
    @@@.@..
    @...@..
    .@@@...
    .......
    .......

u+0e2f:
uni0E2F:
    .......
    .......
    .......
    .......
    .......
    .@@.@@.
    .@@@.@.
    .....@.
    ....@..
    ....@..
    ..@@...
    .......
    .......

u+0e30:
uni0E30:
    .......
    .......
    .......
    .......
    .......
    .......
    ..@@.@.
    ..@@@..
    .......
    .@@.@..
    .@@@...
    .......
    .......

u+0e31:
uni0E31:
    .......
    .......
    ..@....
    ..@@@@@
    .......
    .......
    .......
    .......
    .......
    .......
    .......
    .......
    .......

u+0e32:
uni0E32:
    .......
    .......
    .......
    .......
    .......
    ..@@@..
    .@...@.
    .....@.
    ....@..
    ....@..
    ....@..
    .......
    .......

u+0e33:
uni0E33:
    .......
    .......
    .......
    @@.....
    @@.....
    ..@@@..
    .@...@.
    .....@.
    ....@..
    ....@..
    ....@..
    .......
    .......

u+0e34:
uni0E34:
    .......
    .......
    .......
    .@@@@@@
    .......
    .......
    .......
    .......
    .......
    .......
    .......
    .......
    .......

u+0e35:
uni0E35:
    .......
    .......
    ......@
    .@@@@@@
    .......
    .......
    .......
    .......
    .......
    .......
    .......
    .......
    .......

u+0e36:
uni0E36:
    .......
    .......
    .....@@
    .@@@@@@
    .......
    .......
    .......
    .......
    .......
    .......
    .......
    .......
    .......

u+0e37:
uni0E37:
    .......
    .......
    ....@.@
    .@@@@@@
    .......
    .......
    .......
    .......
    .......
    .......
    .......
    .......
    .......

u+0e38:
uni0E38:
    .......
    .......
    .......
    .......
    .......
    .......
    .......
    .......
    .......
    .......
    .......
    ...@@..
    ....@..

u+0e39:
uni0E39:
    .......
    .......
    .......
    .......
    .......
    .......
    .......
    .......
    .......
    .......
    .......
    .@@.@..
    ..@@@..

u+0e3a:
uni0E3A:
    .......
    .......
    .......
    .......
    .......
    .......
    .......
    .......
    .......
    .......
    .......
    ..@@...
    ..@@...

u+0e3f:
uni0E3F:
    .......
    .......
    .......
    ....@..
    .@@@@..
    .@.@.@.
    .@.@.@.
    .@@@@..
    @.@.@..
    @.@.@..
    @@@@...
    .@.....
    .......

u+0e40:
uni0E40:
    .......
    .......
    .......
    .......
    .......
    ...@...
    ...@...
    ...@...
    ..@....
    ..@@...
    ..@@...
    .......
    .......

u+0e41:
uni0E41:
    .......
    .......
    .......
    .......
    .......
    ..@..@.
    ..@..@.
    ..@..@.
    .@..@..
    .@@.@@.
    .@@.@@.
    .......
    .......

u+0e42:
uni0E42:
    .......
    .......
    .......
    .@@@@@.
    @......
    @@@@...
    ...@...
    ...@...
    ..@....
    ..@@...
    ..@@...
    .......
    .......

u+0e43:
uni0E43:
    .......
    .......
    .......
    ..@@@..
    .@...@.
    @.@.@..
    .@@.@..
    ....@..
    ...@...
    ...@@..
    ...@@..
    .......
    .......

u+0e44:
uni0E44:
    .......
    .......
    .......
    .@@.@@.
    ...@.@.
    ....@..
    ....@..
    ....@..
    ...@...
    ...@@..
    ...@@..
    .......
    .......

u+0e45:
uni0E45:
    .......
    .......
    .......
    .......
    .......
    ..@@@..
    .@...@.
    .....@.
    ....@..
    ....@..
    ....@..
    ...@...
    ...@...

u+0e46:
uni0E46:
    .......
    .......
    .......
    .......
    .......
    .@@@.@.
    .@@.@@.
    .....@.
    ....@..
    ....@..
    ....@..
    ...@...
    .@@....

u+0e47:
uni0E47:
    ......@
    ..@@@@.
    .@.@.@.
    ..@.@@.
    .......
    .......
    .......
    .......
    .......
    .......
    .......
    .......
    .......

u+0e48:
uni0E48:
    ......@
    ......@
    .......
    .......
    .......
    .......
    .......
    .......
    .......
    .......
    .......
    .......
    .......

u+0e49:
uni0E49:
    ...@@.@
    ....@@.
    .......
    .......
    .......
    .......
    .......
    .......
    .......
    .......
    .......
    .......
    .......

u+0e4a:
uni0E4A:
    ..@.@.@
    ..@@@@.
    .......
    .......
    .......
    .......
    .......
    .......
    .......
    .......
    .......
    .......
    .......

u+0e4b:
uni0E4B:
    .....@.
    ....@@@
    .....@.
    .......
    .......
    .......
    .......
    .......
    .......
    .......
    .......
    .......
    .......

u+0e4c:
uni0E4C:
    .....@@
    .....@.
    .......
    .......
    .......
    .......
    .......
    .......
    .......
    .......
    .......
    .......
    .......

u+0e4d:
uni0E4D:
    .....@@
    .....@@
    .......
    .......
    .......
    .......
    .......
    .......
    .......
    .......
    .......
    .......
    .......

u+0e4e:
uni0E4E:
    ....@@@
    ....@..
    ...@...
    ...@@..
    .......
    .......
    .......
    .......
    .......
    .......
    .......
    .......
    .......

u+0e4f:
uni0E4F:
    .......
    .......
    .......
    .......
    .......
    .......
    ..@@@..
    .@...@.
    @.@.@..
    @...@..
    .@@@...
    .......
    .......

u+0e50:
uni0E50:
    .......
    .......
    .......
    .......
    .......
    .......
    ..@@@..
    .@...@.
    @...@..
    @...@..
    .@@@...
    .......
    .......

u+0e51:
uni0E51:
    .......
    .......
    .......
    .......
    .......
    .......
    ..@@@..
    .@.@.@.
    .@@@.@.
    ....@..
    .@@@...
    .......
    .......

u+0e52:
uni0E52:
    .......
    .......
    .......
    .......
    ..@....
    ..@....
    .@.@.@.
    .@.@@@.
    @.@@@..
    @...@..
    .@@@...
    .......
    .......

u+0e53:
uni0E53:
    .......
    .......
    .......
    .......
    .......
    .......
    ..@.@..
    .@.@.@.
    @....@.
    @@..@..
    @@..@..
    .......
    .......

u+0e54:
uni0E54:
    .......
    .......
    .......
    .......
    .....@.
    .....@.
    ..@@@..
    .@.....
    @.@@...
    @.@@...
    .@@@@..
    .......
    .......

u+0e55:
uni0E55:
    .......
    .......
    .......
    .......
    .....@.
    ..@@.@.
    ..@@@..
    .@.....
    @.@@...
    @.@@...
    .@@@@..
    .......
    .......

u+0e56:
uni0E56:
    .......
    .......
    .......
    .......
    .......
    .@.....
    ..@.@..
    ...@.@.
    .....@.
    .@@.@..
    .@@@...
    .......
    .......

u+0e57:
uni0E57:
    .......
    .......
    .......
    .......
    ......@
    ......@
    .@.@.@.
    .@@@.@.
    @.@.@..
    @.@.@..
    @@.@...
    .......
    .......

u+0e58:
uni0E58:
    .......
    .......
    .......
    .......
    .......
    .....@.
    ..@@@..
    .@.....
    @..@@..
    @@@.@..
    .@.@...
    .......
    .......

u+0e59:
uni0E59:
    .......
    .......
    .......
    .......
    .....@.
    .....@.
    ...@@..
    .@@@...
    @.@....
    @@.@...
    @@..@..
    .......
    .......

u+0e5a:
uni0E5A:
    .......
    .......
    .......
    .......
    .......
    .@.@.@.
    .@@@.@.
    ...@.@.
    ..@.@..
    ..@.@..
    @@.@...
    .......
    .......

u+0e5b:
uni0E5B:
    .......
    .......
    .......
    .......
    .......
    .@@....
    .@@....
    .@.@.@.
    @.@@@..
    @.@....
    .@.....
    .......
    .......

u+1e02:
uni1E02:
    .......
    ...@@..
    .......
    .@@@@@.
    ..@...@
    ..@...@
    ..@@@@.
    .@...@.
    .@...@.
    .@...@.
    @@@@@..
    .......
    .......

u+1e03:
uni1E03:
    .......
    ....@@.
    .@.....
    .@.....
    .@.....
    .@.@@@.
    .@@...@
    .@....@
    @....@.
    @@...@.
    @.@@@..
    .......
    .......

u+1e0a:
uni1E0A:
    .......
    ...@@..
    .......
    .@@@@@.
    ..@...@
    ..@...@
    ..@...@
    .@...@.
    .@...@.
    .@...@.
    @@@@@..
    .......
    .......

u+1e0b:
uni1E0B:
    .......
    ..@@...
    ......@
    ......@
    ......@
    ..@@@.@
    .@...@.
    @....@.
    @....@.
    @...@@.
    .@@@.@.
    .......
    .......

u+1e0c:
uni1E0C:
    .......
    .......
    .@@@@@.
    ..@...@
    ..@...@
    ..@...@
    ..@...@
    .@...@.
    .@...@.
    .@...@.
    @@@@@..
    .......
    ..@@...

u+1e0d:
uni1E0D:
    .......
    .......
    ......@
    ......@
    ......@
    ..@@@.@
    .@...@.
    @....@.
    @....@.
    @...@@.
    .@@@.@.
    .......
    ..@@...

u+1e0e:
uni1E0E:
    .......
    .......
    .@@@@@.
    ..@...@
    ..@...@
    ..@...@
    ..@...@
    .@...@.
    .@...@.
    .@...@.
    @@@@@..
    .......
    .@@@@..

u+1e0f:
uni1E0F:
    .......
    .......
    ......@
    ......@
    ......@
    ..@@@.@
    .@...@.
    @....@.
    @....@.
    @...@@.
    .@@@.@.
    .......
    .@@@@..

u+1e1e:
uni1E1E:
    .......
    ...@@..
    .......
    .@@@@@@
    .@.....
    .@.....
    .@@@@..
    @......
    @......
    @......
    @......
    .......
    .......

u+1e1f:
uni1E1F:
    .......
    ...@@..
    .......
    ...@@@.
    ..@...@
    ..@....
    ..@....
    @@@@...
    ..@....
    .@.....
    .@.....
    .......
    .......

u+1e22:
uni1E22:
    .......
    ...@@..
    .......
    .@....@
    .@....@
    .@....@
    .@@@@@.
    @....@.
    @....@.
    @....@.
    @....@.
    .......
    .......

u+1e23:
uni1E23:
    .......
    ....@@.
    .@.....
    .@.....
    .@.....
    .@.@@@.
    .@@...@
    .@....@
    @....@.
    @....@.
    @....@.
    .......
    .......

u+1e24:
uni1E24:
    .......
    .......
    .@....@
    .@....@
    .@....@
    .@....@
    .@@@@@@
    .@....@
    @....@.
    @....@.
    @....@.
    .......
    ..@@...

u+1e25:
uni1E25:
    .......
    .......
    .@.....
    .@.....
    .@.....
    .@.@@@.
    .@@...@
    .@....@
    @....@.
    @....@.
    @....@.
    .......
    ..@@...

u+1e40:
uni1E40:
    .......
    ...@@..
    .......
    .@....@
    .@@..@@
    .@@..@@
    .@.@@.@
    @.@@.@.
    @....@.
    @....@.
    @....@.
    .......
    .......

u+1e41:
uni1E41:
    .......
    .......
    .......
    ..@@...
    .......
    .@@.@..
    .@.@.@.
    .@.@.@.
    @.@.@..
    @.@.@..
    @...@..
    .......
    .......

u+1e42:
uni1E42:
    .......
    .......
    .@....@
    .@@..@@
    .@@..@@
    .@.@@.@
    .@.@@.@
    @....@.
    @....@.
    @....@.
    @....@.
    .......
    ..@@...

u+1e43:
uni1E43:
    .......
    .......
    .......
    .......
    .......
    .@@.@..
    .@.@.@.
    .@.@.@.
    @.@.@..
    @.@.@..
    @...@..
    .......
    .@@....

u+1e44:
uni1E44:
    .......
    ...@@..
    .......
    .@....@
    .@....@
    .@@...@
    .@.@..@
    @..@.@.
    @...@@.
    @....@.
    @....@.
    .......
    .......

u+1e45:
uni1E45:
    .......
    .......
    .......
    ...@@..
    .......
    .@.@@@.
    .@@...@
    .@....@
    @....@.
    @....@.
    @....@.
    .......
    .......

u+1e46:
uni1E46:
    .......
    .......
    .@....@
    .@....@
    .@@...@
    .@.@..@
    .@..@.@
    @...@@.
    @....@.
    @....@.
    @....@.
    .......
    ..@@...

u+1e47:
uni1E47:
    .......
    .......
    .......
    .......
    .......
    .@.@@@.
    .@@...@
    .@....@
    @....@.
    @....@.
    @....@.
    .......
    ..@@...

u+1e56:
uni1E56:
    .......
    ...@@..
    .......
    .@@@@@.
    .@....@
    .@....@
    .@....@
    .@@@@@.
    @......
    @......
    @......
    .......
    .......

u+1e57:
uni1E57:
    .......
    .......
    .......
    ...@@..
    .......
    .@.@@@.
    .@@...@
    @....@.
    @@...@.
    @.@@@..
    @......
    @......
    @......

u+1e58:
uni1E58:
    .......
    ...@@..
    .......
    .@@@@@.
    .@....@
    .@....@
    .@@@@@.
    @.@....
    @..@...
    @...@..
    @....@.
    .......
    .......

u+1e59:
uni1E59:
    .......
    .......
    .......
    ..@@...
    .......
    @.@@@..
    .@...@.
    .@.....
    @......
    @......
    @......
    .......
    .......

u+1e60:
uni1E60:
    .......
    ...@@..
    .......
    ..@@@@.
    .@....@
    .@.....
    ..@@@..
    .....@.
    .....@.
    @....@.
    .@@@@..
    .......
    .......

u+1e61:
uni1E61:
    .......
    .......
    .......
    ...@@..
    .......
    ..@@@@.
    .@....@
    ..@....
    ...@@..
    @....@.
    .@@@@..
    .......
    .......

u+1e62:
uni1E62:
    .......
    .......
    ..@@@@.
    .@....@
    .@.....
    .@.....
    ..@@@..
    .....@.
    .....@.
    @....@.
    .@@@@..
    .......
    ..@@...

u+1e63:
uni1E63:
    .......
    .......
    .......
    .......
    .......
    ..@@@@.
    .@....@
    ..@....
    ...@@..
    @....@.
    .@@@@..
    .......
    ..@@...

u+1e6a:
uni1E6A:
    .......
    ..@@...
    .......
    .@@@@@.
    ...@...
    ...@...
    ...@...
    ..@....
    ..@....
    ..@....
    ..@....
    .......
    .......

u+1e6b:
uni1E6B:
    .......
    ..@@...
    .......
    ..@....
    ..@....
    .@@@@..
    ..@....
    .@.....
    .@.....
    .@...@.
    ..@@@..
    .......
    .......

u+1e80:
Wgrave:
    .......
    ...@...
    ....@..
    .@....@
    .@....@
    .@....@
    .@.@@.@
    @.@@.@.
    @@..@@.
    @@..@@.
    @....@.
    .......
    .......

u+1e81:
wgrave:
    .......
    .......
    ..@....
    ...@...
    .......
    .@...@.
    .@...@.
    .@.@.@.
    @.@.@..
    @.@.@..
    .@.@...
    .......
    .......

u+1e82:
Wacute:
    .......
    ....@..
    ...@...
    .@....@
    .@....@
    .@....@
    .@.@@.@
    @.@@.@.
    @@..@@.
    @@..@@.
    @....@.
    .......
    .......

u+1e83:
wacute:
    .......
    .......
    ....@..
    ...@...
    .......
    .@...@.
    .@...@.
    .@.@.@.
    @.@.@..
    @.@.@..
    .@.@...
    .......
    .......

u+1e84:
Wdieresis:
    .......
    ..@..@.
    .......
    .@....@
    .@....@
    .@....@
    .@.@@.@
    @.@@.@.
    @@..@@.
    @@..@@.
    @....@.
    .......
    .......

u+1e85:
wdieresis:
    .......
    .......
    .......
    ..@.@..
    .......
    .@...@.
    .@...@.
    .@.@.@.
    @.@.@..
    @.@.@..
    .@.@...
    .......
    .......

u+1ef2:
Ygrave:
    .......
    ..@....
    ...@...
    .......
    .@...@.
    .@...@.
    ..@.@..
    ...@...
    ...@...
    ..@....
    ..@....
    .......
    .......

u+1ef3:
ygrave:
    .......
    .......
    ...@...
    ....@..
    .......
    .@....@
    .@....@
    @....@.
    @...@@.
    .@@@.@.
    .....@.
    @....@.
    .@@@@..

u+2000:
uni2000:
    .......
    .......
    .......
    .......
    .......
    .......
    .......
    .......
    .......
    .......
    .......
    .......
    .......

u+2001:
uni2001:
    .......
    .......
    .......
    .......
    .......
    .......
    .......
    .......
    .......
    .......
    .......
    .......
    .......

u+2002:
uni2002:
    .......
    .......
    .......
    .......
    .......
    .......
    .......
    .......
    .......
    .......
    .......
    .......
    .......

u+2003:
uni2003:
    .......
    .......
    .......
    .......
    .......
    .......
    .......
    .......
    .......
    .......
    .......
    .......
    .......

u+2004:
uni2004:
    .......
    .......
    .......
    .......
    .......
    .......
    .......
    .......
    .......
    .......
    .......
    .......
    .......

u+2005:
uni2005:
    .......
    .......
    .......
    .......
    .......
    .......
    .......
    .......
    .......
    .......
    .......
    .......
    .......

u+2006:
uni2006:
    .......
    .......
    .......
    .......
    .......
    .......
    .......
    .......
    .......
    .......
    .......
    .......
    .......

u+2007:
uni2007:
    .......
    .......
    .......
    .......
    .......
    .......
    .......
    .......
    .......
    .......
    .......
    .......
    .......

u+2008:
uni2008:
    .......
    .......
    .......
    .......
    .......
    .......
    .......
    .......
    .......
    .......
    .......
    .......
    .......

u+2009:
uni2009:
    .......
    .......
    .......
    .......
    .......
    .......
    .......
    .......
    .......
    .......
    .......
    .......
    .......

u+200a:
uni200A:
    .......
    .......
    .......
    .......
    .......
    .......
    .......
    .......
    .......
    .......
    .......
    .......
    .......

u+2010:
uni2010:
    .......
    .......
    .......
    .......
    .......
    .......
    .@@@@..
    .......
    .......
    .......
    .......
    .......
    .......

u+2011:
uni2011:
    .......
    .......
    .......
    .......
    .......
    .......
    .@@@@..
    .......
    .......
    .......
    .......
    .......
    .......

u+2012:
figuredash:
    .......
    .......
    .......
    .......
    .......
    .......
    .@@@@@.
    .......
    .......
    .......
    .......
    .......
    .......

u+2013:
endash:
    .......
    .......
    .......
    .......
    .......
    .......
    @@@@@@.
    .......
    .......
    .......
    .......
    .......
    .......

u+2014:
emdash:
    .......
    .......
    .......
    .......
    .......
    .......
    @@@@@@@
    .......
    .......
    .......
    .......
    .......
    .......

u+2015:
afii00208:
    .......
    .......
    .......
    .......
    .......
    .......
    @@@@@@@
    .......
    .......
    .......
    .......
    .......
    .......

u+2016:
uni2016:
    .......
    .......
    ..@.@..
    ..@.@..
    ..@.@..
    ..@.@..
    ..@.@..
    .@.@...
    .@.@...
    .@.@...
    .@.@...
    .......
    .......

u+2017:
underscoredbl:
    .......
    .......
    .......
    .......
    .......
    .......
    .......
    .......
    .......
    .......
    @@@@@@@
    .......
    @@@@@@@

u+2018:
quoteleft:
    .......
    ....@..
    ...@...
    ...@@..
    ...@@..
    .......
    .......
    .......
    .......
    .......
    .......
    .......
    .......

u+2019:
quoteright:
    .......
    ...@@..
    ...@@..
    ....@..
    ...@...
    .......
    .......
    .......
    .......
    .......
    .......
    .......
    .......

u+201a:
quotesinglbase:
    .......
    .......
    .......
    .......
    .......
    .......
    .......
    .......
    ..@@...
    ..@@...
    ...@...
    ..@....
    .......

u+201b:
quotereversed:
    .......
    ...@@..
    ...@@..
    ...@...
    ....@..
    .......
    .......
    .......
    .......
    .......
    .......
    .......
    .......

u+201c:
quotedblleft:
    .......
    ..@..@.
    .@..@..
    .@@.@@.
    .@@.@@.
    .......
    .......
    .......
    .......
    .......
    .......
    .......
    .......

u+201d:
quotedblright:
    .......
    .@@.@@.
    .@@.@@.
    ..@..@.
    .@..@..
    .......
    .......
    .......
    .......
    .......
    .......
    .......
    .......

u+201e:
quotedblbase:
    .......
    .......
    .......
    .......
    .......
    .......
    .......
    .......
    .@@.@@.
    .@@.@@.
    ..@..@.
    .@..@..
    .......

u+201f:
uni201F:
    .......
    .@@.@@.
    .@@.@@.
    .@..@..
    ..@..@.
    .......
    .......
    .......
    .......
    .......
    .......
    .......
    .......

u+2020:
dagger:
    .......
    .......
    ...@...
    ...@...
    .@@@@@.
    ...@...
    ...@...
    ..@....
    ..@....
    ..@....
    ..@....
    .......
    .......

u+2021:
daggerdbl:
    .......
    .......
    ...@...
    ...@...
    .@@@@@.
    ...@...
    ...@...
    ..@....
    @@@@@..
    ..@....
    ..@....
    .......
    .......

u+2022:
bullet:
    .......
    .......
    .......
    .......
    .......
    ..@@@..
    .@@@@@.
    @@@@@..
    @@@@@..
    .@@@...
    .......
    .......
    .......

u+2023:
uni2023:
    .......
    .......
    .......
    ..@....
    ..@@...
    ..@@@..
    ..@@@@.
    .@@@...
    .@@....
    .@.....
    .......
    .......
    .......

u+2024:
onedotenleader:
    .......
    .......
    .......
    .......
    .......
    .......
    .......
    .......
    .......
    .......
    ...@...
    .......
    .......

u+2025:
twodotenleader:
    .......
    .......
    .......
    .......
    .......
    .......
    .......
    .......
    .......
    .......
    .@..@..
    .......
    .......

u+2026:
ellipsis:
    .......
    .......
    .......
    .......
    .......
    .......
    .......
    .......
    .......
    .......
    .@.@.@.
    .......
    .......

u+2027:
uni2027:
    .......
    .......
    .......
    .......
    .......
    .......
    ..@@...
    .......
    .......
    .......
    .......
    .......
    .......

u+202f:
uni202F:
    .......
    .......
    .......
    .......
    .......
    .......
    .......
    .......
    .......
    .......
    .......
    .......
    .......

u+2030:
perthousand:
    .......
    .......
    ..@...@
    .@.@..@
    ..@..@.
    ....@..
    ...@...
    ..@....
    .@.@.@.
    @.@.@.@
    @..@.@.
    .......
    .......

u+2031:
uni2031:
    .......
    .......
    ..@...@
    .@.@..@
    ..@..@.
    ....@..
    ...@...
    ..@..@.
    .@@.@.@
    @@.@.@.
    @.@.@..
    .......
    .......

u+2032:
minute:
    .......
    ...@...
    ...@...
    ..@....
    .......
    .......
    .......
    .......
    .......
    .......
    .......
    .......
    .......

u+2033:
second:
    .......
    ..@..@.
    ..@..@.
    .@..@..
    .......
    .......
    .......
    .......
    .......
    .......
    .......
    .......
    .......

u+2034:
uni2034:
    .......
    .@.@.@.
    .@.@.@.
    @.@.@..
    .......
    .......
    .......
    .......
    .......
    .......
    .......
    .......
    .......

u+2035:
uni2035:
    .......
    ..@....
    ..@....
    ...@...
    .......
    .......
    .......
    .......
    .......
    .......
    .......
    .......
    .......

u+2036:
uni2036:
    .......
    .@..@..
    .@..@..
    ..@..@.
    .......
    .......
    .......
    .......
    .......
    .......
    .......
    .......
    .......

u+2037:
uni2037:
    .......
    @.@.@..
    @.@.@..
    .@.@.@.
    .......
    .......
    .......
    .......
    .......
    .......
    .......
    .......
    .......

u+2038:
uni2038:
    .......
    .......
    .......
    .......
    .......
    .......
    .......
    .......
    .......
    .......
    .......
    ...@...
    ..@.@..

u+2039:
guilsinglleft:
    .......
    .......
    .......
    .......
    .....@.
    ....@..
    ...@...
    ..@....
    ..@....
    ...@...
    ....@..
    .......
    .......

u+203a:
guilsinglright:
    .......
    .......
    .......
    .......
    ..@....
    ...@...
    ....@..
    ....@..
    ...@...
    ..@....
    .@.....
    .......
    .......

u+203c:
exclamdbl:
    .......
    .......
    ..@.@..
    ..@.@..
    ..@.@..
    ..@.@..
    .@.@...
    .@.@...
    .@.@...
    .......
    .@.@...
    .......
    .......

u+203d:
uni203D:
    .......
    .......
    .@@@@..
    @..@.@.
    @..@.@.
    ...@.@.
    ...@@..
    ..@....
    ..@....
    .......
    ..@....
    .......
    .......

u+203e:
uni203E:
    @@@@@@@
    .......
    .......
    .......
    .......
    .......
    .......
    .......
    .......
    .......
    .......
    .......
    .......

u+203f:
uni203F:
    .......
    .......
    .......
    .......
    .......
    .......
    .......
    .......
    .......
    .......
    @....@.
    .@@@@..
    .......

u+2040:
uni2040:
    .......
    .@@@@..
    @....@.
    .......
    .......
    .......
    .......
    .......
    .......
    .......
    .......
    .......
    .......

u+2042:
uni2042:
    .......
    .......
    .......
    .......
    ....@..
    ...@@@.
    ....@..
    .......
    .@...@.
    @@@.@@@
    .@...@.
    .......
    .......

u+2043:
uni2043:
    .......
    .......
    .......
    .......
    .......
    .......
    ..@@@@.
    .@@@@..
    .......
    .......
    .......
    .......
    .......

u+2044:
fraction:
    .......
    .......
    .....@.
    .....@.
    ....@..
    ...@...
    ...@...
    ..@....
    .@.....
    @......
    @......
    .......
    .......

u+2045:
uni2045:
    .......
    ..@@@@.
    ..@....
    ..@....
    ..@....
    ..@....
    ..@@@@.
    .@.....
    .@.....
    .@.....
    .@.....
    .@@@@..
    .......

u+2046:
uni2046:
    .......
    ..@@@@.
    .....@.
    .....@.
    .....@.
    .....@.
    ..@@@..
    ....@..
    ....@..
    ....@..
    ....@..
    .@@@@..
    .......

u+2048:
uni2048:
    .......
    .......
    .@@..@.
    @..@.@.
    ...@.@.
    ..@..@.
    .@..@..
    @...@..
    @...@..
    .......
    @...@..
    .......
    .......

u+2049:
uni2049:
    .......
    .......
    .@..@@.
    .@.@..@
    .@....@
    .@...@.
    @...@..
    @..@...
    @..@...
    .......
    @..@...
    .......
    .......

u+204a:
uni204A:
    .......
    .......
    .......
    .......
    .......
    .......
    .@@@@@.
    ....@..
    ...@...
    ...@...
    ...@...
    .......
    .......

u+204b:
uni204B:
    .......
    .......
    @@@@@..
    .@.@@@.
    .@.@@@.
    .@.@@@.
    .@.@@..
    @.@....
    @.@....
    @.@....
    @.@....
    .......
    .......

u+204c:
uni204C:
    .......
    .......
    .......
    .......
    ..@@@@@
    .@@@@.@
    .@@@@.@
    @@@@.@.
    @@@@.@.
    .@@@@@.
    .......
    .......
    .......

u+204d:
uni204D:
    .......
    .......
    .......
    .......
    .@@@@@.
    .@.@@@@
    .@.@@@@
    @.@@@@.
    @.@@@@.
    @@@@@..
    .......
    .......
    .......

u+20a8:
uni20A8:
    .......
    .......
    .@@....
    .@.@...
    .@.@...
    .@.@.@@
    .@@.@..
    @.@.@..
    @.@..@.
    @.@..@.
    @.@@@..
    .......
    .......

u+20ac:
Euro:
    .......
    .......
    ...@@@.
    ..@...@
    ..@....
    .@@@@..
    ..@....
    @@@@...
    .@.....
    .@...@.
    ..@@@..
    .......
    .......

u+2102:
uni2102:
    .......
    .......
    ..@@@@.
    .@.@..@
    .@.@...
    .@.@...
    .@.@...
    @.@....
    @.@....
    @.@..@.
    .@@@@..
    .......
    .......

u+2103:
uni2103:
    .@.....
    @.@....
    .@.....
    ...@@..
    ..@..@.
    ..@....
    ..@....
    .@.....
    .@.....
    .@..@..
    ..@@...
    .......
    .......

u+2104:
uni2104:
    .......
    .......
    ....@..
    ....@..
    ...@@@.
    ..@.@..
    ..@.@..
    .@.@...
    ..@@@..
    ...@...
    ...@@@.
    .......
    .......

u+2109:
uni2109:
    .@.....
    @.@....
    .@.....
    ..@@@@.
    ..@....
    ..@....
    ..@@@..
    .@.....
    .@.....
    .@.....
    .@.....
    .......
    .......

u+210d:
uni210D:
    .......
    .......
    .@.@..@
    .@.@..@
    .@.@..@
    .@.@..@
    .@.@@@.
    @.@..@.
    @.@..@.
    @.@..@.
    @.@..@.
    .......
    .......

u+210e:
uni210E:
    .......
    .......
    ...@...
    ...@...
    ...@...
    ..@....
    ..@@@..
    .@...@.
    .@...@.
    @...@..
    @...@..
    .......
    .......

u+210f:
uni210F:
    .......
    .......
    ...@...
    ...@@@.
    .@@@...
    ..@....
    ..@@@..
    .@...@.
    .@...@.
    @...@..
    @...@..
    .......
    .......

u+2113:
afii61289:
    .......
    .......
    ....@..
    ...@.@.
    ...@.@.
    ...@.@.
    ..@.@..
    ..@.@..
    ...@...
    ..@@...
    .@..@@.
    .......
    .......

u+2116:
afii61352:
    .......
    .......
    .@..@..
    .@..@@.
    .@@.@.@
    .@@.@.@
    .@.@.@.
    @..@...
    @..@...
    @..@...
    @..@...
    .......
    .......

u+2119:
uni2119:
    .......
    .......
    .@@@@@.
    .@.@..@
    .@.@..@
    .@.@..@
    .@.@@@.
    @.@....
    @.@....
    @.@....
    @.@....
    .......
    .......

u+211a:
uni211A:
    .......
    .......
    ..@@@@.
    .@.@..@
    .@.@..@
    .@.@..@
    .@.@..@
    @.@..@.
    @.@..@.
    @.@@.@.
    .@@@@..
    .....@.
    .......

u+211d:
uni211D:
    .......
    .......
    .@@@@@.
    .@.@..@
    .@.@..@
    .@.@..@
    .@.@@@.
    @.@..@.
    @.@..@.
    @.@..@.
    @.@..@.
    .......
    .......

u+2122:
trademark:
    @@@@@@.
    .@.@@@.
    @.@.@..
    @.@.@..
    .......
    .......
    .......
    .......
    .......
    .......
    .......
    .......
    .......

u+2126:
Omega:
    .......
    .......
    ..@@@@.
    .@....@
    .@....@
    .@....@
    @....@.
    @....@.
    .@..@..
    .@..@..
    @@..@@.
    .......
    .......

u+2127:
uni2127:
    .......
    .......
    .@@..@@
    ..@..@.
    ..@..@.
    .@....@
    .@....@
    @....@.
    @....@.
    @....@.
    .@@@@..
    .......
    .......

u+215b:
oneeighth:
    .......
    ..@....
    .@@....
    ..@....
    .@.....
    .@..@@.
    @@@@..@
    ...@@@.
    ..@..@.
    ..@..@.
    ...@@..
    .......
    .......

u+215c:
threeeighths:
    .......
    .@@....
    ...@...
    .@@....
    ...@...
    ..@.@@.
    @@.@..@
    ...@@@.
    ..@..@.
    ..@..@.
    ...@@..
    .......
    .......

u+215d:
fiveeighths:
    .......
    .@@@...
    .@.....
    @@.....
    ..@....
    ..@.@@.
    @@.@..@
    ...@@@.
    ..@..@.
    ..@..@.
    ...@@..
    .......
    .......

u+215e:
seveneighths:
    .......
    @@@....
    ..@....
    .@.....
    .@.....
    @..@@..
    @.@..@.
    ..@@@..
    .@..@..
    .@..@..
    ..@@...
    .......
    .......

u+2190:
arrowleft:
    .......
    .......
    .......
    .......
    ..@....
    .@.....
    @@@@@@@
    @......
    .@.....
    .......
    .......
    .......
    .......

u+2191:
arrowup:
    .......
    .......
    ...@...
    ..@@@..
    .@.@.@.
    ...@...
    ...@...
    ..@....
    ..@....
    ..@....
    ..@....
    .......
    .......

u+2192:
arrowright:
    .......
    .......
    .......
    .......
    ....@..
    .....@.
    @@@@@@@
    ....@..
    ...@...
    .......
    .......
    .......
    .......

u+2193:
arrowdown:
    .......
    .......
    ....@..
    ....@..
    ....@..
    ....@..
    ....@..
    ...@...
    .@.@.@.
    ..@@@..
    ...@...
    .......
    .......

u+2194:
arrowboth:
    .......
    .......
    .......
    .......
    ..@.@..
    .@...@.
    @@@@@@@
    @...@..
    .@.@...
    .......
    .......
    .......
    .......

u+2195:
arrowupdn:
    .......
    .......
    .......
    ...@...
    ..@@@..
    .@.@.@.
    ...@...
    ..@....
    @.@.@..
    .@@@...
    ..@....
    .......
    .......

u+2212:
minus:
    .......
    .......
    .......
    .......
    .......
    .......
    .@@@@@.
    .......
    .......
    .......
    .......
    .......
    .......

u+2260:
notequal:
    .......
    .......
    .......
    ......@
    .....@.
    .@@@@@@
    ...@...
    ..@....
    @@@@@@.
    .@.....
    @......
    .......
    .......

u+2264:
lessequal:
    .......
    .......
    .......
    .......
    .....@@
    ...@@..
    .@@....
    ...@...
    ....@@.
    .......
    @@@@@@.
    .......
    .......

u+2265:
greaterequal:
    .......
    .......
    .......
    .......
    .@@....
    ...@@..
    .....@@
    ..@@@..
    @@.....
    .......
    @@@@@@.
    .......
    .......

u+2408:
uni2408:
    .......
    .......
    .@@....
    .@.@...
    .@@....
    @.@....
    @@..@@.
    ...@...
    ....@..
    ....@..
    ..@@...
    .......
    .......

u+2409:
uni2409:
    .......
    .......
    .@.@...
    .@.@...
    .@@....
    @.@....
    @.@.@@@
    .....@.
    .....@.
    ....@..
    ....@..
    .......
    .......

u+240a:
uni240A:
    .......
    .......
    .@.....
    .@.....
    .@.....
    @......
    @@@.@@@
    ....@..
    ....@@.
    ...@...
    ...@...
    .......
    .......

u+240b:
uni240B:
    .......
    .......
    @..@...
    @..@...
    @.@....
    @.@....
    .@.@@@.
    ....@..
    ....@..
    ...@...
    ...@...
    .......
    .......

u+240c:
uni240C:
    .......
    .......
    ..@@@..
    ..@....
    ..@@...
    .@.....
    .@.@@@.
    ...@...
    ...@@..
    ..@....
    ..@....
    .......
    .......

u+240d:
uni240D:
    .......
    .......
    ..@@...
    .@.....
    @......
    @......
    .@@.@@.
    ....@.@
    ....@@.
    ...@.@.
    ...@.@.
    .......
    .......

u+2424:
uni2424:
    .......
    .......
    .@..@..
    .@@.@..
    .@.@...
    @..@...
    @..@@..
    ....@..
    ....@..
    ...@...
    ...@@@.
    .......
    .......

u+2669:
uni2669:
    .......
    .......
    .....@.
    .....@.
    .....@.
    .....@.
    ....@..
    ..@@@..
    .@@@@..
    .@@@@..
    ..@@...
    .......
    .......

u+266a:
musicalnote:
    .......
    .......
    ....@@.
    ....@.@
    ....@..
    ....@..
    ...@...
    .@@@...
    @@@@...
    @@@@...
    .@@....
    .......
    .......

u+fb00:
ff:
    .......
    .......
    ..@..@.
    .@.@@.@
    .@..@..
    .@..@..
    @@@@@@.
    .@..@..
    @..@...
    @..@...
    @..@...
    .......
    .......

u+fb01:
fi:
    .......
    .......
    ...@@..
    ..@..@.
    ..@....
    ..@..@.
    .@@@@@.
    ..@..@.
    .@..@..
    .@..@..
    .@..@..
    .......
    .......

u+fb02:
fl:
    .......
    .......
    ...@@@.
    ..@..@.
    ..@..@.
    ..@..@.
    .@@@@@.
    ..@..@.
    .@..@..
    .@..@..
    .@..@..
    .......
    .......

u+fb03:
ffi:
    .......
    .......
    ..@.@..
    .@.@.@.
    .@.@...
    .@.@.@.
    @@@@@@.
    .@.@.@.
    @.@.@..
    @.@.@..
    @.@.@..
    .......
    .......

u+fb04:
ffl:
    .......
    .......
    ..@.@@.
    .@.@.@.
    .@.@.@.
    .@.@.@.
    @@@@@@.
    .@.@.@.
    @.@.@..
    @.@.@..
    @.@.@..
    .......
    .......

u+fb05:
uniFB05:
    .......
    .......
    ..@@...
    .@..@..
    .@..@..
    .@..@..
    @@@@@@.
    .@..@..
    @..@...
    @..@.@.
    @...@..
    .......
    .......

u+fb06:
uniFB06:
    .......
    .......
    ....@@.
    ...@.@.
    ...@.@.
    ..@@.@@
    .@...@.
    .@..@..
    ..@.@..
    ..@.@..
    @@...@.
    .......
    .......

u+fe20:
uniFE20:
    ....@@@
    ..@@...
    .......
    .......
    .......
    .......
    .......
    .......
    .......
    .......
    .......
    .......
    .......

u+fe21:
uniFE21:
    @@@@@..
    .....@@
    .......
    .......
    .......
    .......
    .......
    .......
    .......
    .......
    .......
    .......
    .......

u+fe22:
uniFE22:
    ...@@@@
    ..@....
    .......
    .......
    .......
    .......
    .......
    .......
    .......
    .......
    .......
    .......
    .......

u+fe23:
uniFE23:
    @.....@
    .@@@@@.
    .......
    .......
    .......
    .......
    .......
    .......
    .......
    .......
    .......
    .......
    .......

u+fffd:
uniFFFD:
    .......
    .......
    ..@@@..
    .@@.@@.
    .@.@.@.
    .@@@.@.
    .@@.@@.
    @@.@@..
    @@@@@..
    @@.@@..
    .@@@...
    .......
    .......

